<?xml version="1.0" encoding="UTF-8"?>
<svg id="a" data-name="Contents" xmlns="http://www.w3.org/2000/svg" xmlns:xlink="http://www.w3.org/1999/xlink" viewBox="0 0 1000 72.36" width="1000" height="72.36">
  <defs>
    <style>
      .e {
        fill: none;
      }

      .e, .f {
        stroke-width: 0px;
      }

      .g {
        clip-path: url(#b);
      }

      .h {
        clip-path: url(#c);
      }

      .f {
        fill: #9ecd7a;
      }
    </style>
    <clipPath id="b">
      <rect class="e" width="1000" height="72.36"/>
    </clipPath>
    <clipPath id="c">
      <path class="e" d="M997.41,14.97c1.39-1.79.2-5.18-2.59-4.38-6.37,2.19-12.15,7.57-17.53,11.75-5.38,3.99-10.76,7.97-15.94,11.95-.4-.2-.8-.2-1.19-.2-11.75.2-23.71.2-35.46.4l11.95-9.56c5.98-4.78,12.95-9.36,18.13-15.14,1.99-2.39-.6-5.78-3.39-4.38-6.37,3.19-11.95,8.77-17.13,13.55-5.18,4.78-10.16,9.96-14.54,15.34-13.15.2-26.49.4-39.64.4,2.99-4.58,6.17-9.16,9.56-13.75,3.98-5.38,9.56-10.56,11.95-16.73.8-1.99-1.99-3.99-3.59-2.79-5.58,3.39-9.16,10.36-12.75,15.54-3.78,5.78-7.37,11.55-10.36,17.73-75.9.8-151.79,1.79-227.69,2.99-49.8,1.2-98.61,2.19-147.01,3.39h-.2c-48.8-1.2-97.21-2.19-147.01-2.19-75.7-1.99-151.59-2.79-227.49-3.59-3.19-6.18-6.57-12.15-10.36-17.73-3.59-5.18-7.37-12.15-12.75-15.54-1.79-1-4.38.8-3.59,2.79,2.39,6.37,7.97,11.35,11.95,16.73,3.39,4.38,6.37,8.96,9.56,13.75-13.15-.2-26.49-.4-39.64-.4-4.38-5.58-9.36-10.56-14.54-15.34-5.18-4.78-10.76-10.36-17.13-13.54-2.79-1.4-5.38,1.99-3.39,4.38,4.98,5.78,12.15,10.16,18.13,15.14l11.95,9.56c-12.15-.6-23.9-.6-35.86-.8-.4,0-.8,0-1.19.2-5.18-4.18-10.56-8.17-15.94-11.95-5.38-3.98-11.15-9.56-17.53-11.75-2.79-1-3.98,2.59-2.59,4.38,3.98,4.98,10.56,8.37,15.94,12.15,5.38,3.78,10.76,7.37,16.14,10.96-10.36,6.18-21.52,12.35-30.08,20.32-2.59,2.39.8,5.78,3.39,4.58,11.35-5.38,22.11-14.34,32.07-21.91,11.55.2,23.11.4,34.86.6-4.58,3.19-9.16,6.57-13.74,9.96-5.38,3.99-11.95,7.77-16.14,12.95-1.79,2.39.4,5.18,3.19,3.99,5.97-2.79,11.35-8.17,16.53-12.15,5.78-4.78,11.75-9.36,17.33-14.34,0,0,0-.2.2-.2l36.65.6c-3.58,3.39-6.97,6.77-10.56,10.16-4.58,4.38-11.35,9.16-13.94,14.94-1,2.39,1,4.38,3.39,3.39,5.78-2.59,10.56-9.36,15.14-13.75,4.78-4.78,9.36-9.56,13.94-14.34,75.1,1.19,150.2,2.59,225.3,3.59h.8c47.01-.2,92.63.4,138.45.8.2,0,.6.2,1,.2h15.54c.4,0,.6,0,1-.2,46.02-.4,92.03-1,139.24-1.99,74.9-1,150.2-2.39,225.1-3.59,4.58,4.98,9.36,9.56,13.94,14.34,4.58,4.58,9.16,11.16,15.14,13.75,2.19,1,4.38-1,3.39-3.39-2.79-5.78-9.36-10.56-13.94-14.94-3.39-3.39-6.97-6.77-10.56-10.16l36.65-.6s0,.2.2.2c5.58,4.98,11.35,9.56,17.33,14.34,5.18,4.18,10.56,9.56,16.53,12.15,2.79,1.2,4.98-1.79,3.19-3.98-4.18-5.18-10.76-8.96-16.14-12.95-4.58-3.39-9.16-6.57-13.74-9.96,11.55-.2,23.11-.4,34.86-.6,10.16,7.57,20.92,16.53,32.07,21.91,2.79,1.39,5.98-2.19,3.39-4.58-8.57-7.97-19.72-14.14-30.08-20.32,5.38-3.58,10.76-7.17,16.14-10.96,5.18-2.59,11.75-5.98,15.74-11.16Z"/>
    </clipPath>
  </defs>
  <g class="g">
    <g class="h">
      <rect class="f" x="1.99" y="1.62" width="996.02" height="69.12"/>
    </g>
  </g>
</svg>