<?xml version="1.0" encoding="UTF-8" standalone="no"?>
<svg
   id="a"
   data-name="Contents"
   viewBox="0 0 1000 976.2"
   version="1.1"
   sodipodi:docname="logo-outline.svg"
   inkscape:version="1.4.2 (ebf0e940d0, 2025-05-08)"
   width="1000"
   height="976.20001"
   xmlns:inkscape="http://www.inkscape.org/namespaces/inkscape"
   xmlns:sodipodi="http://sodipodi.sourceforge.net/DTD/sodipodi-0.dtd"
   xmlns="http://www.w3.org/2000/svg"
   xmlns:svg="http://www.w3.org/2000/svg">
  <sodipodi:namedview
     id="namedview30"
     pagecolor="#ffffff"
     bordercolor="#000000"
     borderopacity="0.25"
     inkscape:showpageshadow="2"
     inkscape:pageopacity="0.0"
     inkscape:pagecheckerboard="0"
     inkscape:deskcolor="#d1d1d1"
     inkscape:zoom="0.58035155"
     inkscape:cx="338.58788"
     inkscape:cy="438.5273"
     inkscape:window-width="1920"
     inkscape:window-height="1011"
     inkscape:window-x="0"
     inkscape:window-y="0"
     inkscape:window-maximized="1"
     inkscape:current-layer="g30" />
  <defs
     id="defs1">
    <style
       id="style1">
      .c {
        fill: #9ecd7a;
      }

      .c, .d, .e, .f {
        stroke-width: 0px;
      }

      .d {
        fill: #513024;
      }

      .e {
        fill: #ed6b4d;
      }

      .f {
        fill: #006909;
      }
    </style>
  </defs>
  <g
     id="g30">
    <path
       class="f"
       d="m 11.920238,942.58931 c 6.690134,5.98013 21.020421,11.94025 31.620633,11.94025 8.580171,0 12.100242,-2.80006 12.100242,-6.71013 0,-4.67011 -6.130123,-6.35014 -15.440309,-7.84017 -15.250305,-2.61005 -36.8407368,-5.73012 -36.8407368,-28.67058 0,-15.85033 13.5802718,-29.66062 38.5207708,-29.66062 13.480269,-0.14 26.650533,4.05009 37.590751,11.94025 L 68.49137,912.6087 c -5.400108,-5.2201 -15.630313,-9.88021 -26.420529,-9.88021 -6.690133,0 -11.350227,2.24005 -11.350227,6.15014 0,3.91008 4.850097,5.59011 14.300286,7.27014 15.250305,2.62006 37.96076,6.35013 37.96076,30.21062 C 82.98166,963.55974 67.911358,976.2 42.050841,976.2 26.050521,976.2 9.50019,970.7999 0,962.40972 l 11.940239,-19.84041 z"
       id="path1" />
    <path
       class="f"
       d="m 158.33317,963.11973 c -5.58011,6.34014 -16.00032,13.04027 -31.07062,13.04027 -20.46041,0 -29.580596,-11.55024 -29.580596,-28.15057 v -64.17132 h 28.590576 v 52.36107 c 0,10.82023 5.58011,14.5503 14.88029,14.5503 6.78014,-0.04 13.14027,-3.29006 17.16035,-8.77018 v -58.19119 h 28.59057 v 90.09185 h -28.59057 v -10.75023 z"
       id="path2" />
    <path
       class="f"
       d="m 212.17424,942.58931 c 6.71014,5.98013 21.03042,11.94025 31.62064,11.94025 8.58017,0 12.10024,-2.80006 12.10024,-6.71013 0,-4.67011 -6.13012,-6.35014 -15.44031,-7.84017 -15.25031,-2.61005 -36.83074,-5.73012 -36.83074,-28.67058 0,-15.85033 13.58027,-29.66062 38.50077,-29.66062 13.48027,-0.14 26.65054,4.05009 37.59075,11.94025 l -10.98022,19.02039 c -5.3901,-5.2201 -15.63031,-9.88021 -26.42052,-9.88021 -6.69014,0 -11.34023,2.24005 -11.34023,6.15014 0,3.91008 4.8301,5.59011 14.30029,7.27014 15.2503,2.62006 37.94075,6.35013 37.94075,30.21062 0,17.20035 -15.0703,29.84061 -40.93081,29.84061 -16.00032,0 -32.55066,-5.4001 -42.05085,-13.79028 l 11.94024,-19.84041 z"
       id="path3" />
    <path
       class="f"
       d="m 303.83608,949.68946 v -40.85083 h -14.8803 v -25.00052 h 14.8803 V 859.2076 h 28.44057 v 24.63051 h 18.23036 v 25.00052 h -18.23036 v 32.82066 c 0,5.23012 2.97005,9.1402 7.99016,9.1402 3.17006,0 6.33012,-1.12003 7.26014,-2.24005 l 5.58011,21.63044 c -3.53007,3.35007 -10.61021,5.96012 -21.20042,5.96012 -18.21037,0 -28.06056,-9.13018 -28.06056,-26.47054 z"
       id="path4" />
    <path
       class="f"
       d="m 388.29777,919.27884 h 37.01074 c -0.74002,-6.35013 -5.39011,-15.48032 -18.59038,-15.48032 -12.48025,0 -17.27034,8.95018 -18.43036,15.48032 z m 18.42036,-37.68078 c 26.61054,0 45.95092,19.5804 45.95092,50.17104 v 6.15012 h -63.99128 c 1.67004,8.39017 9.48019,16.04033 22.87046,16.04033 8.01016,0 16.93034,-3.17006 21.96044,-7.65016 l 12.09024,17.92036 c -8.94018,8.01017 -23.82047,11.93025 -37.59075,11.93025 -27.72055,0 -49.11098,-18.09037 -49.11098,-47.30096 0,-26.16055 19.72039,-47.24098 47.81095,-47.24098 z"
       id="path5" />
    <path
       class="f"
       d="m 527.64055,921.85889 c 0,-11.01022 -5.72011,-14.9203 -14.68029,-14.9203 -6.87014,0.05 -13.33027,3.28006 -17.50035,8.76017 v 58.1912 h -28.59057 v -90.06185 h 28.59057 v 11.01023 c 5.40011,-6.34013 16.00032,-13.24028 31.07062,-13.24028 20.47041,0 29.7706,11.94025 29.7706,28.54059 v 63.78131 h -28.59058 l -0.06,-52.06107 z"
       id="path6" />
    <path
       class="f"
       d="m 583.10166,949.68946 v -40.85083 h -14.9303 v -25.00052 h 14.8803 V 859.2076 h 28.45057 v 24.63051 h 18.29037 v 25.00052 h -18.24037 v 32.82066 c 0,5.23012 2.99006,9.1402 8.01016,9.1402 3.16006,0 6.32013,-1.12003 7.26015,-2.24005 l 5.58011,21.63044 c -3.53007,3.35007 -10.61021,5.96012 -21.22043,5.96012 -18.23036,0 -28.08056,-9.13018 -28.08056,-26.47054 z"
       id="path7" />
    <path
       class="f"
       d="m 697.13394,942.77932 c -2.97006,-4.10009 -9.66019,-6.34013 -16.00032,-6.34013 -7.62015,0 -14.30028,3.35007 -14.30028,10.45022 0,7.10014 6.70013,10.44021 14.30028,10.44021 6.33013,0 13.02026,-2.24005 16.00032,-6.52013 z m 0,22.20045 c -5.58011,6.71014 -16.37032,11.18023 -27.89056,11.18023 -13.77027,0 -30.90061,-9.32018 -30.90061,-29.6406 0,-21.83046 17.16034,-28.35059 30.90061,-28.35059 11.89024,0 22.50045,3.73008 27.89056,10.43022 v -11.37024 c 0,-7.84015 -6.69013,-13.06027 -18.23036,-13.06027 -9.34019,0.10001 -18.36037,3.46008 -25.49051,9.5002 l -10.22021,-18.09037 c 11.54023,-9.8902 26.98054,-13.99029 40.75082,-13.99029 21.57043,0 41.85084,8.03017 41.85084,36.01074 v 56.32116 h -28.59058 l -0.06,-8.94019 z"
       id="path8" />
    <path
       class="f"
       d="m 746.62493,883.83811 h 28.59057 v 11.38023 c 5.95012,-7.27014 17.30035,-13.62028 28.09057,-13.62028 v 27.79058 c -2.29005,-0.67002 -4.6801,-0.99002 -7.06015,-0.93002 -7.45014,0 -17.31034,3.17006 -21.03042,8.40017 v 57.06117 h -28.59057 v -90.09185 z"
       id="path9" />
    <path
       class="f"
       d="m 839.8168,919.27884 h 37.01074 c -0.74002,-6.35013 -5.39011,-15.48032 -18.59038,-15.48032 -12.45024,0 -17.28034,8.95018 -18.43036,15.48032 z m 18.44037,-37.68078 c 26.61053,0 45.95091,19.5804 45.95091,50.17104 v 6.15012 H 840.2168 c 1.67004,8.39017 9.48019,16.04033 22.87046,16.04033 8.01016,0 16.93034,-3.17006 21.96044,-7.65016 l 12.09024,17.92036 c -8.94018,8.01017 -23.82047,11.93025 -37.59075,11.93025 -27.72055,0 -49.11098,-18.09037 -49.11098,-47.30096 0,-26.16055 19.72039,-47.24098 47.81095,-47.24098 z"
       id="path10" />
    <path
       class="f"
       d="m 971.34943,942.77932 c -2.97006,-4.10009 -9.6802,-6.34013 -16.00032,-6.34013 -7.63016,0 -14.30029,3.35007 -14.30029,10.45022 0,7.10014 6.69013,10.44021 14.30029,10.44021 6.32012,0 13.02026,-2.24005 16.00032,-6.52013 z m 0,22.20045 c -5.58011,6.71014 -16.37033,11.18023 -27.91056,11.18023 -13.77028,0 -30.88062,-9.32018 -30.88062,-29.6406 0,-21.83046 17.16034,-28.35059 30.88062,-28.35059 11.91024,0 22.52045,3.73008 27.91056,10.43022 v -11.37024 c 0,-7.84015 -6.71014,-13.06027 -18.23037,-13.06027 -9.34018,0.09 -18.36036,3.45008 -25.49051,9.5002 l -10.2402,-18.09037 c 11.54023,-9.8902 26.98054,-13.99029 40.75081,-13.99029 21.59043,0 41.86084,8.03017 41.86084,36.01074 v 56.32116 h -28.65057 z"
       id="path11" />
    <path
       class="c"
       d="m 847.44695,255.22522 c -1.11002,-0.79001 -1.47003,-2.27004 -0.87002,-3.48007 9.53019,-19.28039 14.52029,-40.49082 14.58029,-62.01127 0,-99.262031 -106.69213,-179.73368 -238.31476,-179.73368 -42.89086,0 -83.25167,8.600176 -118.05236,23.590484 -0.61002,0.260005 -1.30003,0.260005 -1.92004,0 C 468.07936,18.590376 427.77856,10.0002 384.8277,10.0002 c -131.62264,0 -238.31477,80.471649 -238.31477,179.73368 0.06,21.52045 5.0501,42.73088 14.58029,62.01127 0.60001,1.22003 0.23001,2.69006 -0.87002,3.48007 -54.01108,36.94076 -88.541766,93.43192 -88.541766,156.75322 0,111.29229 107.502146,216.58444 238.304766,201.50413 81.49163,-9.39019 136.71273,-88.25181 180.1436,-137.93283 0.46001,-0.56001 1.15003,-0.88002 1.87004,-0.87002 h 1.94004 c 0.71001,0 8.16016,-5.88011 8.35017,-5.1601 9.44018,37.84078 114.50229,136.17279 195.4239,143.97295 131.04263,12.56026 238.30477,-90.21184 238.30477,-201.50413 -0.03,-63.3313 -34.56069,-119.82246 -88.57177,-156.75322 z"
       id="path12"
       style="fill:none;stroke:#006909;stroke-width:20.0004;stroke-dasharray:none" />
    <path
       class="d"
       d="m 874.55749,473.85971 c 0.71002,-6.06012 -4.9801,-11.04022 -10.69021,-13.07026 -9.49019,-3.35008 -19.9304,-1.89005 -29.9406,-0.13001 -65.0113,11.47023 -128.67257,30.97063 -195.26391,14.33029 -15.1503,-3.70007 -29.08058,-11.26023 -40.46081,-21.94045 -3.29006,-2.83006 -5.83011,-6.44013 -7.39014,-10.49021 -1.01002,-3.74008 -1.25003,-7.64016 -0.71002,-11.47024 2.33005,-28.54058 16.28033,-78.0016 -21.45043,-89.56183 -1.52003,-0.61001 -3.20006,-0.68001 -4.76009,-0.19 -2.86006,1.18002 -3.30007,5.1601 -2.13004,8.06016 1.17002,2.90006 3.15006,5.40011 3.92007,8.40017 1.14003,4.5401 -0.89001,9.22019 -2.86005,13.47028 -5.28011,10.47021 -11.67024,20.35041 -19.06038,29.4506 -17.66036,23.15048 -24.9805,52.59108 -20.22041,81.34167 0.13,0.83002 0.24001,1.65003 0.34001,2.44005 2.67005,20.58042 -24.9805,82.16168 41.66083,157.77323 7.02014,7.94016 20.60041,20.87043 36.23073,35.50073 v -82.5917 c -1.18003,-6.03012 2.38004,-11.98024 8.25016,-13.77028 73.07146,-37.27076 147.04294,-75.51154 227.32455,-94.33193 7.66015,-1.73003 36.03072,-2.90006 37.21074,-13.23027 z"
       id="path13"
       style="fill:#006909" />
    <path
       class="d"
       d="m 296.12592,473.99971 c 16.40033,3.88008 33.85068,2.87006 50.88102,1.69003 20.44041,-1.32002 41.46083,-2.87005 59.62119,-10.75021 -4.76009,-5.60012 -15.3003,-9.2202 -18.74037,-15.14031 -2.94006,-5.10011 -5.39011,-10.47022 -7.32015,-16.04033 -2.62005,-7.54016 -4.22008,-15.41032 -8.58017,-22.40046 -4.70009,-7.84016 -12.87026,-12.94027 -21.96044,-13.70029 3.17006,19.2904 8.81018,39.63082 9.44019,59.14122 -8.99018,-4.46009 -16.78034,-11.02022 -22.72046,-19.1204 -11.17022,-16.24032 -24.59049,-32.18065 -48.21096,-36.74074 -0.66001,-0.20001 -1.37003,-0.20001 -2.03004,0 -1.24002,0.50001 -1.04002,1.98004 -0.66001,3.07006 4.45009,11.26023 10.56021,21.79045 18.13036,31.23063 3.30007,4.30009 6.73013,8.51018 9.76019,12.90027 2.32005,3.24007 6.36013,14.4803 9.7602,16.11033 -19.04038,-9.7602 -41.03082,-19.29039 -56.13112,-33.07068 -2.22005,-2.32004 -4.6801,-4.42008 -7.32015,-6.25012 -5.57011,-2.97006 -11.81024,-4.42009 -18.11036,-4.20009 -3.46007,0 -15.40031,-0.21 -17.61035,2.42005 -0.49001,0.70002 -0.42001,1.65004 0.17,2.27005 0.54001,0.72001 43.76088,42.05086 71.63143,48.58099 z"
       id="path14"
       style="fill:#006909" />
    <path
       class="d"
       d="m 733.81468,464.13951 c 28.02056,-6.58014 43.09086,-29.2006 64.54129,-43.9609 1.70003,-1.16003 3.42007,-2.19005 5.2001,-3.33007 0.81002,-0.40001 1.55003,-0.95002 2.16004,-1.62004 0.57002,-0.60001 0.64002,-1.51003 0.17001,-2.19004 -2.29005,-2.69005 -14.21029,-2.51005 -17.67036,-2.48005 -6.33012,-0.23 -12.61025,1.21003 -18.20036,4.19008 -2.69005,1.85004 -5.2001,3.96008 -7.48015,6.31014 -15.1403,13.92028 -37.17074,23.44048 -56.34113,33.27068 3.42007,-1.76004 7.51015,-12.90026 9.8202,-16.21034 3.13006,-4.39009 6.59013,-8.60017 9.8902,-13.00026 7.62015,-9.4802 13.76027,-20.07041 18.23036,-31.39065 0.39001,-1.10002 0.57001,-2.57005 -0.67001,-3.08006 -0.66001,-0.19 -1.37003,-0.19 -2.03004,0 -23.73048,4.60009 -37.17074,20.64043 -48.44097,36.97076 -5.99012,8.15017 -13.84028,14.74031 -22.87046,19.2504 0.61001,-19.64041 6.29013,-40.00082 9.48019,-59.50122 -9.66019,0.52001 -17.64035,6.74013 -22.03044,13.79028 -4.39009,7.05014 -5.98012,14.9203 -8.58017,22.52046 -1.96004,5.60012 -4.44009,11.00022 -7.41015,16.14033 -3.46007,5.95013 -14.04028,9.5802 -18.83037,15.22031 18.14036,7.97017 39.34078,9.4602 59.87119,10.79023 17.18035,1.12002 34.7307,2.22004 51.18103,-1.68004 z"
       id="path15"
       style="fill:#006909" />
    <path
       class="d"
       d="M 671.99344,776.0159 C 665.94332,757.81553 573.34147,679.10391 550.47101,653.11338 483.82968,577.51183 511.48023,515.90057 508.81018,495.35015 c -5.15011,-40.61084 -22.02044,-76.80158 -39.22079,-113.32232 -1.99004,-4.3001 -4.05008,-8.93019 -2.86006,-13.47028 0.77002,-3.00006 2.86006,-5.49011 3.92008,-8.40017 1.06002,-2.91007 0.60001,-6.88014 -2.24004,-8.07017 -1.57003,-0.49001 -3.26007,-0.42001 -4.7901,0.20001 -37.63075,11.55024 -23.68047,61.02125 -21.45043,89.56184 0.52001,3.83007 0.28001,7.73015 -0.70001,11.47023 -1.58003,4.03008 -4.11008,7.62016 -7.38015,10.45022 -13.45027,12.90025 -31.32062,20.28041 -49.55099,23.98048 -63.32127,12.90026 -124.18248,-5.3701 -186.24372,-16.33033 -9.9202,-1.76004 -20.37041,-3.22007 -29.9406,0.13 -5.72012,2.14004 -11.44023,7.01014 -10.69022,13.07027 1.22003,10.33021 29.58059,11.47023 37.34075,13.32027 80.28161,18.69038 145.68291,56.98117 218.75438,94.24193 2.57005,1.04002 4.82009,2.73006 6.53013,4.9201 20.2104,32.58067 23.36046,72.9915 8.42016,108.32223 -14.80029,35.98073 -76.22152,67.76138 -71.07142,72.08147 0.84002,0.69001 53.30107,-14.3303 114.37229,-20.17041 1.09002,-3.12007 2.04004,-6.28013 2.86006,-9.47019 5.3601,-19.4404 7.15014,-39.95082 6.65013,-60.50124 -0.21,-10.31022 -0.93002,-20.65043 -2.17004,-30.99064 -1.24003,-10.33021 -2.86006,-20.68043 -4.9201,-31.06063 4.60009,9.61019 8.29016,19.6404 11.02022,29.94061 2.77005,10.35021 4.77009,20.89042 5.98012,31.53065 2.32004,21.31043 1.43003,43.37088 -4.39009,64.50132 -0.47001,1.68003 -0.99002,3.35006 -1.52003,5.0301 11.51023,-0.80002 23.20046,-1.22003 34.8107,-1.09003 78.80157,0.79002 153.62307,26.57055 151.65303,20.78043 z"
       id="path16"
       style="fill:#006909" />
    <path
       class="f"
       d="m 249.50499,105.42216 c 2.49005,4.74009 5.80012,9.00018 9.7802,12.57026 3.89007,3.68007 8.01016,7.27015 12.07024,10.82022 8.14016,7.08014 16.61033,13.77028 26.06052,18.38037 9.45019,4.6001 19.73039,7.51015 30.1806,9.93021 l 15.86032,3.61007 c 5.33011,1.22003 10.67021,2.61006 15.94032,4.14009 10.59021,3.05006 20.99042,6.70013 31.17062,10.94022 10.1802,4.28009 19.9704,9.4602 29.25059,15.47032 4.73009,3.07006 9.24018,6.48014 13.48027,10.21021 4.23008,3.75007 8.10016,7.90016 11.55023,12.38025 3.46007,4.4901 6.34012,9.4002 8.58017,14.6103 2.21004,5.1601 3.53007,10.65022 3.90008,16.25033 l -0.99002,0.19001 c -3.49007,-10.02021 -9.26019,-19.09039 -16.84034,-26.50054 -3.68007,-3.68009 -7.63015,-7.07015 -11.82024,-10.15021 -4.17008,-3.12007 -8.55017,-5.96012 -13.10026,-8.50017 -9.24018,-5.29012 -18.62037,-10.27022 -28.15056,-14.96031 -9.55019,-4.7501 -19.41039,-8.87019 -29.49059,-12.34026 -10.0102,-3.51007 -20.44041,-6.11012 -31.00062,-9.02018 -10.55021,-2.91006 -21.13042,-6.34013 -30.91062,-11.81025 -9.7802,-5.47011 -18.04036,-12.90026 -25.81052,-20.54042 -3.89007,-3.84007 -7.73015,-7.61015 -11.44022,-11.61023 -3.85008,-3.97009 -6.95014,-8.60018 -9.18019,-13.66029 l 0.90002,-0.4 z"
       id="path17" />
    <path
       class="f"
       d="m 460.42921,255.00522 c -6.70014,-12.00024 -10.71022,-25.33052 -11.75024,-39.0508 -0.51001,-6.86014 -0.48001,-13.75028 0.10001,-20.60042 0.57001,-6.82014 1.50003,-13.49027 2.70005,-20.20042 2.28005,-13.49027 6.23012,-26.63054 11.77023,-39.1308 2.81006,-6.27012 6.26013,-12.23024 10.29021,-17.79036 2.00004,-2.77006 4.22009,-5.38011 6.62013,-7.81016 2.36005,-2.44005 4.9401,-4.6601 7.71016,-6.62014 -8.36017,10.56022 -13.72028,22.56047 -17.80036,34.90072 -3.91008,12.46025 -6.86014,25.20052 -8.84018,38.11078 -0.53001,3.24007 -1.01002,6.48014 -1.43002,9.7302 -0.46001,3.25007 -0.84002,6.52013 -1.20003,9.7502 -0.73001,6.48014 -1.27002,12.90026 -1.43003,19.39039 -0.17,6.50014 0.04,13.01027 0.64002,19.4804 0.61001,6.54014 1.60003,13.10028 2.62005,19.82041 z"
       id="path18" />
    <path
       class="f"
       d="m 347.99696,167.66343 -32.43065,-5.3301 c -10.74021,-1.98004 -21.64043,-2.99006 -32.57065,-3.02006 -10.79022,0.05 -21.49043,2.12004 -31.52063,6.09012 -4.9901,2.05004 -9.7302,4.64009 -14.14028,7.74015 -4.42009,3.18007 -8.54017,6.76015 -12.31025,10.69023 l -0.23,-0.19001 c 6.59013,-9.05019 15.4003,-16.22033 25.59051,-20.81042 5.1101,-2.28005 10.49021,-3.89008 16.01032,-4.8001 5.49011,-0.89002 11.04022,-1.28003 16.60033,-1.16002 11.02022,0.35 21.98044,1.69003 32.75065,4.03008 l 32.24065,6.48013 v 0.29 z"
       id="path19" />
    <path
       class="f"
       d="m 515.73031,348.50714 c -1.59003,-16.17033 0.28001,-32.49067 5.49011,-47.87098 2.59006,-7.75016 6.07013,-15.16031 10.37021,-22.10045 4.31009,-7.02015 9.54019,-13.42028 15.55031,-19.03039 6.06012,-5.61012 12.85026,-10.38022 20.17041,-14.19029 7.23014,-3.71008 14.68029,-6.98014 22.30044,-9.80021 7.58015,-2.87006 15.30031,-5.45011 23.06046,-7.67015 7.76016,-2.22005 15.54031,-4.30009 23.25047,-6.31013 15.41031,-4.03009 30.39061,-8.76018 44.32088,-15.45032 6.89014,-3.30006 13.95028,-7.17014 20.87042,-10.95023 6.92014,-3.78007 13.71028,-7.77015 20.27041,-12.05024 6.55013,-4.27008 12.86025,-8.91019 18.89038,-13.89029 5.98012,-4.9901 11.53023,-10.47021 16.61033,-16.38033 2.53005,-2.97006 4.9001,-6.06012 7.15014,-9.26019 2.24005,-3.20006 4.29009,-6.58013 6.16012,-10.03021 3.75008,-6.99014 6.77014,-14.34029 8.99018,-21.96045 l 0.97002,0.20001 c -1.06002,8.08017 -3.16006,15.99033 -6.23012,23.54048 -3.14006,7.61016 -7.16014,14.8303 -11.98024,21.50044 -4.8201,6.68014 -10.28021,12.87026 -16.28033,18.50038 -2.98006,2.87006 -6.06012,5.58012 -9.24018,8.14017 -3.17006,2.58005 -6.45013,5.0501 -9.7602,7.41015 -6.66013,4.74009 -13.52027,9.14019 -20.53041,13.20027 -3.50007,2.04004 -7.02014,4.03008 -10.57021,5.93012 -1.76003,0.96002 -3.53007,1.91004 -5.40011,2.87006 -1.87003,0.96002 -3.66007,1.91004 -5.58011,2.71005 -7.48015,3.41008 -15.2103,6.25014 -23.12046,8.47018 -7.85016,2.27005 -15.73032,4.10008 -23.56047,5.88012 -15.65031,3.47007 -31.08062,6.91014 -45.96092,12.13025 -7.47015,2.49005 -14.7803,5.43011 -21.89044,8.80018 -7.01014,3.34006 -13.54027,7.61016 -19.43039,12.68026 -11.78023,10.43021 -20.83041,23.59048 -26.38053,38.33079 -5.71011,14.87029 -8.28016,30.76062 -7.55015,46.67095 h -0.97002 z"
       id="path20" />
    <path
       class="f"
       d="m 582.47165,242.86498 c 5.43011,-5.79013 10.43021,-11.97025 14.9703,-18.49038 4.47009,-6.36013 8.58017,-12.99027 12.87026,-19.65041 l 3.23006,-5.0201 3.26007,-4.9501 c 2.12004,-3.14007 4.07008,-6.40013 5.85011,-9.7502 1.73004,-3.29007 3.02006,-6.79014 3.85008,-10.41022 0.89002,-3.82007 1.03002,-7.77015 0.41001,-11.64023 2.64005,3.43007 4.20008,7.56015 4.49009,11.88024 0.36001,4.39009 -0.12,8.82018 -1.43003,13.03027 -1.26003,4.08008 -2.94006,8.02016 -5.0201,11.75024 -1.97004,3.64008 -4.05008,7.05014 -6.22013,10.51021 -4.37008,7.01014 -9.50019,13.52028 -15.3003,19.3904 -5.96012,5.73011 -12.98026,10.82023 -20.96042,13.33028 z"
       id="path21" />
    <path
       class="f"
       d="m 771.81544,284.00582 c -13.07027,-2.99006 -26.60054,-3.45007 -39.8508,-1.35003 -4.34009,0.64002 -8.64017,1.57003 -12.87026,2.78006 -4.19008,1.21002 -8.27016,2.76005 -12.21024,4.63009 l -11.75024,5.40011 c -4.12008,1.86004 -8.24016,3.54008 -12.31024,5.29012 -4.07008,1.75003 -8.18017,3.58007 -12.55025,5.3801 l -0.64002,-0.76001 c 5.16011,-8.08017 13.08026,-14.00029 20.82042,-18.76039 4.07008,-2.50005 8.45017,-4.45009 13.02026,-5.81011 4.56009,-1.29003 9.19018,-2.34005 13.87028,-3.14008 4.62009,-0.83001 9.29018,-1.36002 13.98028,-1.59003 4.67009,-0.19 9.34018,-0.06 14.00028,0.39001 9.21018,0.90002 18.24036,3.13007 26.81053,6.64014 l -0.31,0.90002 z"
       id="path22" />
    <path
       class="f"
       d="m 676.44353,298.57612 c 9.42019,-4.5201 19.78039,-6.73014 30.2206,-6.45014 1.30003,0 2.62006,0 3.92008,0.11 1.30003,0.12001 2.59005,0.27001 3.87008,0.44001 1.29002,0.17001 2.57005,0.39001 3.86008,0.60002 l 3.79007,0.93001 3.76008,1.00002 3.69007,1.20003 3.67007,1.20002 3.62008,1.32004 3.62007,1.32002 3.53007,1.43003 3.53007,1.43003 3.46007,1.61003 3.45007,1.63004 3.36007,1.76003 c 2.26004,1.15003 4.47009,2.37005 6.68013,3.61007 8.75017,5.0301 17.16034,10.38022 25.58051,15.90033 l -0.49001,0.89002 c -9.14018,-4.13008 -18.10036,-8.60017 -27.29054,-12.28026 -2.27005,-0.97001 -4.5601,-1.92003 -6.88014,-2.87005 l -3.45007,-1.33003 -3.49007,-1.22002 -3.46007,-1.23003 -3.50007,-1.10002 -3.50007,-1.09002 -3.53007,-0.93002 -3.53007,-0.90002 -3.57007,-0.67001 -3.56007,-0.65002 -3.59008,-0.43 -3.56007,-0.52001 -3.56007,-0.40001 c -1.19002,-0.14001 -2.36005,-0.32001 -3.55007,-0.50001 -1.19002,-0.19001 -2.36005,-0.26001 -3.55007,-0.42001 -2.37005,-0.30001 -4.7501,-0.69001 -7.15014,-0.83002 -2.40005,-0.14 -4.8001,-0.60001 -7.23015,-0.66001 -1.22002,-0.07 -2.43005,-0.14 -3.67007,-0.26001 -1.24003,-0.12 -2.47005,-0.27 -3.70008,-0.27 -2.49004,-0.11 -4.99009,-0.22001 -7.59015,-0.56001 l -0.2,-0.83002 z"
       id="path23" />
    <path
       class="f"
       d="m 217.89436,346.4871 c 6.90014,-3.01006 13.59027,-6.50013 20.0204,-10.44022 6.60013,-3.91008 13.44027,-7.38015 20.49041,-10.41021 14.26028,-5.99012 29.29058,-9.93021 44.65089,-11.71024 15.1903,-1.68004 30.49061,-2.12004 45.75092,-1.32003 15.1703,0.64001 30.2106,1.78004 45.3609,3.31007 -15.0803,2.11004 -30.2806,2.87006 -45.3509,3.50008 -15.07031,0.63001 -30.0206,1.28002 -44.7809,3.04006 -14.69029,1.69003 -29.17058,4.8201 -43.25086,9.35019 -7.15015,2.26004 -14.04029,4.90009 -21.04043,7.81016 -7.01014,2.91006 -14.31028,5.69012 -21.85043,6.87014 z"
       id="path24" />
    <path
       class="f"
       d="m 245.41491,271.85557 c 5.72011,2.98006 10.98022,6.39012 16.24032,9.7202 5.26011,3.33007 10.42021,6.68014 15.60032,9.8502 5.1801,3.17006 10.3102,6.26012 15.53031,9.16019 5.1701,2.97006 10.66021,5.35011 16.37032,7.08014 5.81012,1.68004 11.76024,2.81006 17.77036,3.38007 6.09012,0.73002 12.34025,1.18002 18.59037,1.71004 12.45025,1.16002 24.9205,2.18004 37.39075,3.45006 v 1.00002 c -12.52025,0.32001 -25.0305,0.36001 -37.54075,0.56002 -6.25013,0 -12.50025,0.13 -18.87038,0 -6.47013,-0.16001 -12.91026,-0.92002 -19.24038,-2.26005 -6.41013,-1.39003 -12.69026,-3.37007 -18.73038,-5.93012 -5.99012,-2.57005 -11.65023,-5.86012 -16.86034,-9.79019 -5.1201,-3.84009 -9.9402,-8.07018 -14.43029,-12.64027 -4.49009,-4.51009 -8.66017,-9.35019 -12.45024,-14.4603 l 0.64001,-0.82001 z"
       id="path25" />
    <path
       class="e"
       d="m 332.99666,234.90481 c 0,2.53005 -0.48001,4.96011 -1.45003,7.30015 -0.97002,2.34005 -2.34005,4.40009 -4.12008,6.19013 -1.78004,1.79003 -3.84008,3.17006 -6.17012,4.14008 -2.33005,0.97002 -4.7601,1.45003 -7.28015,1.45003 -2.52005,0 -4.9501,-0.49001 -7.28015,-1.45003 -2.33004,-0.97002 -4.39008,-2.35005 -6.17012,-4.14008 -1.78004,-1.79004 -3.16006,-3.85008 -4.12008,-6.19013 -0.97002,-2.34004 -1.45003,-4.7701 -1.45003,-7.30015 0,-2.53005 0.48001,-4.9601 1.45003,-7.30015 0.97002,-2.34004 2.34004,-4.40009 4.12008,-6.19012 1.78004,-1.79004 3.84008,-3.17007 6.17012,-4.14009 2.33005,-0.97002 4.7601,-1.45003 7.28015,-1.45003 2.52005,0 4.9501,0.49001 7.28015,1.45003 2.33004,0.97002 4.39008,2.35005 6.17012,4.14009 1.78003,1.79003 3.16006,3.85008 4.12008,6.19012 0.97002,2.34005 1.45003,4.7701 1.45003,7.30015 z"
       id="path26"
       style="fill:#006909" />
    <path
       class="e"
       d="m 550.61101,175.18358 c 0,3.11008 -0.59001,6.10014 -1.78003,8.97019 -1.19003,2.87006 -2.88006,5.41011 -5.0701,7.61016 -2.19005,2.20004 -4.7201,3.89007 -7.59016,5.0801 -2.87005,1.19003 -5.85011,1.78004 -8.95018,1.78004 -3.10006,0 -6.08012,-0.60001 -8.95017,-1.78004 -2.87006,-1.19003 -5.39011,-2.88006 -7.59016,-5.0801 -2.19004,-2.20005 -3.88007,-4.7301 -5.0701,-7.61016 -1.19002,-2.87005 -1.78003,-5.87011 -1.78003,-8.97019 0,-3.10006 0.59001,-6.10012 1.78003,-8.97018 1.19003,-2.87005 2.88006,-5.4101 5.0701,-7.61015 2.19005,-2.20005 4.7201,-3.89009 7.59016,-5.08011 2.87005,-1.19002 5.85011,-1.78004 8.95017,-1.78004 3.10007,0 6.08013,0.60002 8.95018,1.78004 2.87006,1.19002 5.39011,2.89006 7.59016,5.08011 2.19004,2.20005 3.88007,4.7301 5.0701,7.61015 1.19002,2.87006 1.78003,5.87012 1.78003,8.97018 z"
       id="path27"
       style="fill:#006909" />
    <path
       class="e"
       d="m 397.33795,85.241743 c 0,2.550052 -0.49001,5.000102 -1.46003,7.35015 -0.97002,2.350048 -2.36005,4.43009 -4.15009,6.230127 -1.80003,1.80004 -3.87007,3.19007 -6.21012,4.16009 -2.35005,0.97002 -4.7901,1.46003 -7.33015,1.46003 -2.54005,0 -4.9801,-0.49001 -7.33014,-1.46003 -2.35005,-0.97002 -4.42009,-2.36005 -6.21013,-4.16009 -1.80003,-1.800037 -3.18006,-3.880079 -4.15008,-6.230127 -0.97002,-2.350048 -1.46003,-4.800098 -1.46003,-7.35015 0,-2.550053 0.49001,-5.000103 1.46003,-7.350151 0.97002,-2.350048 2.36005,-4.430091 4.15008,-6.230128 1.80004,-1.800037 3.87008,-3.190066 6.21013,-4.160085 2.35004,-0.980021 4.79009,-1.46003 7.33014,-1.46003 2.54005,0 4.9801,0.49001 7.33015,1.46003 2.35005,0.970019 4.42009,2.360048 6.21012,4.160085 1.80004,1.800037 3.18007,3.88008 4.15009,6.230128 0.97002,2.350048 1.46003,4.800098 1.46003,7.350151 z"
       id="path28"
       style="fill:#006909" />
    <path
       class="e"
       d="m 629.06258,305.72626 c 0,2.53006 -0.48001,4.9601 -1.45003,7.30015 -0.97002,2.34005 -2.34004,4.40009 -4.12008,6.19013 -1.79004,1.79004 -3.84008,3.17007 -6.17012,4.14009 -2.33005,0.97002 -4.7601,1.45003 -7.28015,1.45003 -2.52005,0 -4.9501,-0.49001 -7.28014,-1.45003 -2.33005,-0.97002 -4.39009,-2.35005 -6.17013,-4.14009 -1.78003,-1.79004 -3.16006,-3.85008 -4.12008,-6.19013 -0.97002,-2.34005 -1.45003,-4.77009 -1.45003,-7.30015 0,-2.53005 0.48001,-4.96009 1.45003,-7.30015 0.97002,-2.34005 2.34005,-4.40009 4.12008,-6.19013 1.78004,-1.79003 3.84008,-3.17006 6.17013,-4.14008 2.33004,-0.97002 4.76009,-1.45003 7.28014,-1.45003 2.52005,0 4.9501,0.49001 7.28015,1.45003 2.33004,0.97002 4.39008,2.35005 6.17012,4.14008 1.78004,1.79004 3.16006,3.85008 4.12008,6.19013 0.97002,2.34006 1.45003,4.7701 1.45003,7.30015 z"
       id="path29"
       style="fill:#006909" />
    <path
       class="e"
       d="m 700.56401,111.67228 c 0,2.55005 -0.49001,5.00011 -1.46003,7.35016 -0.97002,2.35005 -2.36005,4.43009 -4.15008,6.23013 -1.80004,1.80003 -3.87008,3.19006 -6.21013,4.16008 -2.35004,0.98002 -4.79009,1.46003 -7.33014,1.46003 -2.54005,0 -4.9801,-0.49001 -7.33015,-1.46003 -2.35005,-0.97002 -4.42009,-2.36005 -6.21012,-4.16008 -1.80004,-1.80004 -3.18007,-3.88008 -4.15009,-6.23013 -0.97001,-2.35005 -1.46002,-4.80011 -1.46002,-7.35016 0,-2.55005 0.49001,-5.0001 1.46002,-7.35015 0.97002,-2.35005 2.36005,-4.430087 4.15009,-6.230124 1.80003,-1.800037 3.87007,-3.190066 6.21012,-4.160085 2.35005,-0.980021 4.7901,-1.460031 7.33015,-1.460031 2.54005,0 4.9801,0.49001 7.33014,1.460031 2.35005,0.970019 4.42009,2.360048 6.21013,4.160085 1.80004,1.800037 3.18006,3.880074 4.15008,6.230124 0.97002,2.35005 1.46003,4.8001 1.46003,7.35015 z"
       id="path30"
       style="fill:#006909" />
  </g>
</svg>
