<?xml version="1.0" encoding="UTF-8"?>
<svg id="a" data-name="Contents" xmlns="http://www.w3.org/2000/svg" viewBox="0 0 800 93.6">
  <defs>
    <style>
      .c {
        fill: #006909;
        stroke-width: 0px;
      }
    </style>
  </defs>
  <path class="c" d="M9.55,66.7c5.35,4.78,16.81,9.55,25.3,9.55,6.86,0,9.68-2.24,9.68-5.37,0-3.74-4.91-5.08-12.35-6.27-12.2-2.09-29.47-4.59-29.47-22.93,0-12.68,10.87-23.72,30.81-23.72,10.78-.11,21.32,3.24,30.07,9.55l-8.78,15.22c-4.32-4.17-12.5-7.9-21.14-7.9-5.35,0-9.08,1.79-9.08,4.92s3.88,4.47,11.44,5.81c12.2,2.1,30.37,5.08,30.37,24.17,0,13.76-12.05,23.87-32.75,23.87-12.8,0-26.04-4.32-33.64-11.03l9.55-15.87Z"/>
  <path class="c" d="M126.68,83.12c-4.46,5.07-12.8,10.43-24.85,10.43-16.37,0-23.66-9.24-23.66-22.52V19.7h22.87v41.89c0,8.66,4.46,11.64,11.91,11.64,5.42-.03,10.51-2.63,13.72-7.02V19.65h22.87v72.07h-22.87v-8.6Z"/>
  <path class="c" d="M169.75,66.7c5.36,4.78,16.82,9.55,25.3,9.55,6.86,0,9.68-2.24,9.68-5.37,0-3.74-4.91-5.08-12.35-6.27-12.2-2.09-29.46-4.59-29.46-22.93,0-12.68,10.87-23.72,30.8-23.72,10.78-.11,21.32,3.24,30.07,9.55l-8.78,15.22c-4.31-4.17-12.5-7.9-21.14-7.9-5.35,0-9.07,1.79-9.07,4.92s3.87,4.47,11.44,5.81c12.2,2.1,30.35,5.08,30.35,24.17,0,13.76-12.05,23.87-32.75,23.87-12.8,0-26.04-4.32-33.64-11.03l9.55-15.87Z"/>
  <path class="c" d="M243.08,72.38v-32.68h-11.91v-20h11.91V0h22.75v19.7h14.58v20h-14.58v26.26c0,4.19,2.38,7.32,6.39,7.32,2.54,0,5.07-.89,5.81-1.79l4.46,17.3c-2.83,2.68-8.49,4.77-16.96,4.77-14.57,0-22.45-7.3-22.45-21.18Z"/>
  <path class="c" d="M310.65,48.06h29.61c-.59-5.08-4.31-12.39-14.87-12.39-9.98,0-13.82,7.16-14.74,12.39ZM325.38,17.91c21.28,0,36.76,15.66,36.76,40.13v4.92h-51.19c1.34,6.71,7.58,12.83,18.3,12.83,6.4,0,13.54-2.53,17.57-6.12l9.68,14.33c-7.15,6.41-19.05,9.54-30.07,9.54-22.18,0-39.29-14.47-39.29-37.84,0-20.93,15.77-37.79,38.25-37.79Z"/>
  <path class="c" d="M422.12,50.12c0-8.81-4.58-11.94-11.75-11.94-5.5.04-10.67,2.62-14,7.01v46.56h-22.87V19.7h22.87v8.81c4.32-5.07,12.8-10.59,24.85-10.59,16.38,0,23.81,9.55,23.81,22.83v51.03h-22.87l-.05-41.65Z"/>
  <path class="c" d="M466.49,72.38v-32.68h-11.94v-20h11.91V0h22.76v19.7h14.63v20h-14.59v26.26c0,4.19,2.39,7.32,6.4,7.32,2.53,0,5.06-.89,5.81-1.79l4.46,17.3c-2.83,2.68-8.49,4.77-16.97,4.77-14.58,0-22.46-7.3-22.46-21.18Z"/>
  <path class="c" d="M557.71,66.85c-2.38-3.28-7.73-5.07-12.8-5.07-6.1,0-11.44,2.68-11.44,8.36s5.36,8.35,11.44,8.35c5.07,0,10.42-1.79,12.8-5.22v-6.42ZM557.71,84.61c-4.46,5.37-13.1,8.94-22.31,8.94-11.01,0-24.72-7.45-24.72-23.71,0-17.46,13.72-22.68,24.72-22.68,9.52,0,18,2.98,22.31,8.35v-9.09c0-6.27-5.35-10.45-14.58-10.45-7.47.08-14.68,2.77-20.39,7.6l-8.18-14.47c9.23-7.91,21.58-11.19,32.6-11.19,17.26,0,33.48,6.42,33.48,28.8v45.05h-22.87l-.05-7.16Z"/>
  <path class="c" d="M597.31,19.7h22.87v9.1c4.76-5.81,13.84-10.89,22.47-10.89v22.23c-1.83-.54-3.74-.79-5.65-.75-5.96,0-13.85,2.53-16.82,6.72v45.65h-22.87V19.7Z"/>
  <path class="c" d="M671.86,48.06h29.61c-.59-5.08-4.31-12.39-14.87-12.39-9.96,0-13.83,7.16-14.74,12.39ZM686.61,17.91c21.28,0,36.76,15.66,36.76,40.13v4.92h-51.19c1.34,6.71,7.58,12.83,18.3,12.83,6.41,0,13.54-2.53,17.57-6.12l9.68,14.33c-7.15,6.41-19.05,9.54-30.07,9.54-22.18,0-39.29-14.47-39.29-37.84,0-20.93,15.77-37.79,38.25-37.79Z"/>
  <path class="c" d="M777.08,66.85c-2.38-3.28-7.74-5.07-12.8-5.07-6.11,0-11.44,2.68-11.44,8.36s5.35,8.35,11.44,8.35c5.06,0,10.42-1.79,12.8-5.22v-6.42ZM777.08,84.61c-4.46,5.37-13.1,8.94-22.33,8.94-11.01,0-24.7-7.45-24.7-23.71,0-17.46,13.72-22.68,24.7-22.68,9.53,0,18.01,2.98,22.33,8.35v-9.09c0-6.27-5.36-10.45-14.58-10.45-7.47.07-14.69,2.76-20.39,7.6l-8.19-14.47c9.23-7.91,21.58-11.19,32.6-11.19,17.27,0,33.49,6.42,33.49,28.8v45.05h-22.92v-7.16Z"/>
</svg>