<?xml version="1.0" encoding="UTF-8" standalone="no"?>
<svg
   id="a"
   data-name="Contents"
   viewBox="0 0 1000 117"
   width="1000"
   height="117"
   version="1.1"
   sodipodi:docname="name.svg"
   inkscape:version="1.4.3 (0d15f75042, 2025-12-25)"
   inkscape:export-filename="name.png"
   inkscape:export-xdpi="96"
   inkscape:export-ydpi="96"
   xmlns:inkscape="http://www.inkscape.org/namespaces/inkscape"
   xmlns:sodipodi="http://sodipodi.sourceforge.net/DTD/sodipodi-0.dtd"
   xmlns="http://www.w3.org/2000/svg"
   xmlns:svg="http://www.w3.org/2000/svg"
   xmlns:rdf="http://www.w3.org/1999/02/22-rdf-syntax-ns#"
   xmlns:cc="http://creativecommons.org/ns#"
   xmlns:dc="http://purl.org/dc/elements/1.1/">
  <title
     id="title1">Sustentarea</title>
  <sodipodi:namedview
     id="namedview11"
     pagecolor="#ffffff"
     bordercolor="#000000"
     borderopacity="0.25"
     inkscape:showpageshadow="2"
     inkscape:pageopacity="0.0"
     inkscape:pagecheckerboard="0"
     inkscape:deskcolor="#d1d1d1"
     inkscape:zoom="0.73362329"
     inkscape:cx="465.49776"
     inkscape:cy="100.86921"
     inkscape:window-width="1920"
     inkscape:window-height="1011"
     inkscape:window-x="0"
     inkscape:window-y="0"
     inkscape:window-maximized="1"
     inkscape:current-layer="layer1" />
  <defs
     id="defs1">
    <style
       id="style1">
      .c {
        fill: #006909;
        stroke-width: 0px;
      }
    </style>
  </defs>
  <g
     inkscape:groupmode="layer"
     id="layer1"
     inkscape:label="Name"
     sodipodi:insensitive="true">
    <path
       class="c"
       d="m 11.925,83.375 c 6.6875,5.975 21.0125,11.9375 31.625,11.9375 8.575,0 12.1,-2.8 12.1,-6.7125 0,-4.675 -6.1375,-6.35 -15.4375,-7.8375 C 24.9625,78.15 3.375,75.025 3.375,52.1 c 0,-15.85 13.5875,-29.65 38.5125,-29.65 13.475,-0.1375 26.65,4.05 37.5875,11.9375 L 68.5,53.4125 C 63.1,48.2 52.875,43.5375 42.075,43.5375 c -6.6875,0 -11.35,2.2375 -11.35,6.15 0,3.9125 4.85,5.5875 14.3,7.2625 15.25,2.625 37.9625,6.35 37.9625,30.2125 C 82.9875,104.3625 67.925,117 42.05,117 26.05,117 9.5,111.6 0,103.2125 L 11.9375,83.375 Z"
       id="path1" />
    <path
       class="c"
       d="m 158.3375,103.9 c -5.575,6.3375 -16,13.0375 -31.0625,13.0375 -20.4625,0 -29.575,-11.55 -29.575,-28.15 V 24.625 h 28.5875 v 52.3625 c 0,10.825 5.575,14.55 14.8875,14.55 6.775,-0.0375 13.1375,-3.2875 17.15,-8.775 v -58.2 h 28.5875 V 114.65 H 158.325 V 103.9 Z"
       id="path2" />
    <path
       class="c"
       d="m 212.175,83.375 c 6.7,5.975 21.025,11.9375 31.625,11.9375 8.575,0 12.1,-2.8 12.1,-6.7125 0,-4.675 -6.1375,-6.35 -15.4375,-7.8375 -15.25,-2.6125 -36.825,-5.7375 -36.825,-28.6625 0,-15.85 13.5875,-29.65 38.5,-29.65 13.475,-0.1375 26.65,4.05 37.5875,11.9375 l -10.975,19.025 c -5.3875,-5.2125 -15.625,-9.875 -26.425,-9.875 -6.6875,0 -11.3375,2.2375 -11.3375,6.15 0,3.9125 4.8375,5.5875 14.3,7.2625 15.25,2.625 37.9375,6.35 37.9375,30.2125 0,17.2 -15.0625,29.8375 -40.9375,29.8375 -16,0 -32.55,-5.4 -42.05,-13.7875 z"
       id="path3" />
    <path
       class="c"
       d="M 303.8375,90.475 V 49.625 H 288.95 v -25 h 14.8875 V 0 H 332.275 V 24.625 H 350.5 v 25 H 332.275 V 82.45 c 0,5.2375 2.975,9.15 7.9875,9.15 3.175,0 6.3375,-1.1125 7.2625,-2.2375 l 5.575,21.625 c -3.5375,3.35 -10.6125,5.9625 -21.2,5.9625 -18.2125,0 -28.0625,-9.125 -28.0625,-26.475 z"
       id="path4" />
    <path
       class="c"
       d="m 388.3,60.075 h 37.0125 c -0.7375,-6.35 -5.3875,-15.4875 -18.5875,-15.4875 -12.475,0 -17.275,8.95 -18.425,15.4875 z m 18.4125,-37.6875 c 26.6,0 45.95,19.575 45.95,50.1625 V 78.7 H 388.675 c 1.675,8.3875 9.475,16.0375 22.875,16.0375 8,0 16.925,-3.1625 21.9625,-7.65 l 12.1,17.9125 c -8.9375,8.0125 -23.8125,11.925 -37.5875,11.925 -27.725,0 -49.1125,-18.0875 -49.1125,-47.3 0,-26.1625 19.7125,-47.2375 47.8125,-47.2375 z"
       id="path5" />
    <path
       class="c"
       d="m 527.6375,62.65 c 0,-11.0125 -5.725,-14.925 -14.6875,-14.925 -6.875,0.05 -13.3375,3.275 -17.5,8.7625 v 58.2 H 466.8625 V 24.625 H 495.45 V 35.6375 C 500.85,29.3 511.45,22.4 526.5125,22.4 c 20.475,0 29.7625,11.9375 29.7625,28.5375 V 114.725 H 527.6875 L 527.625,62.6625 Z"
       id="path6" />
    <path
       class="c"
       d="m 583.1,90.475 v -40.85 h -14.925 v -25 h 14.8875 V 0 h 28.45 V 24.625 H 629.8 v 25 H 611.5625 V 82.45 c 0,5.2375 2.9875,9.15 8,9.15 3.1625,0 6.325,-1.1125 7.2625,-2.2375 l 5.575,21.625 c -3.5375,3.35 -10.6125,5.9625 -21.2125,5.9625 -18.225,0 -28.075,-9.125 -28.075,-26.475 z"
       id="path7" />
    <path
       class="c"
       d="m 697.125,83.5625 c -2.975,-4.1 -9.6625,-6.3375 -16,-6.3375 -7.625,0 -14.3,3.35 -14.3,10.45 0,7.1 6.7,10.4375 14.3,10.4375 6.3375,0 13.025,-2.2375 16,-6.525 z m 0,22.2 c -5.575,6.7125 -16.375,11.175 -27.8875,11.175 -13.7625,0 -30.9,-9.3125 -30.9,-29.6375 0,-21.825 17.15,-28.35 30.9,-28.35 11.9,0 22.5,3.725 27.8875,10.4375 V 58.025 c 0,-7.8375 -6.6875,-13.0625 -18.225,-13.0625 -9.3375,0.1 -18.35,3.4625 -25.4875,9.5 L 643.1875,36.375 c 11.5375,-9.8875 26.975,-13.9875 40.75,-13.9875 21.575,0 41.85,8.025 41.85,36 V 114.7 H 697.2 l -0.0625,-8.95 z"
       id="path8" />
    <path
       class="c"
       d="m 746.625,24.625 h 28.5875 V 36 c 5.95,-7.2625 17.3,-13.6125 28.0875,-13.6125 V 50.175 c -2.2875,-0.675 -4.675,-0.9875 -7.0625,-0.9375 -7.45,0 -17.3125,3.1625 -21.025,8.4 V 114.7 H 746.625 Z"
       id="path9" />
    <path
       class="c"
       d="m 839.8125,60.075 h 37.0125 c -0.7375,-6.35 -5.3875,-15.4875 -18.5875,-15.4875 -12.45,0 -17.2875,8.95 -18.425,15.4875 z M 858.25,22.3875 c 26.6,0 45.95,19.575 45.95,50.1625 v 6.15 h -63.9875 c 1.675,8.3875 9.475,16.0375 22.875,16.0375 8.0125,0 16.925,-3.1625 21.9625,-7.65 L 897.15,105 c -8.9375,8.0125 -23.8125,11.925 -37.5875,11.925 -27.725,0 -49.1125,-18.0875 -49.1125,-47.3 0,-26.1625 19.7125,-47.2375 47.8125,-47.2375 z"
       id="path10" />
    <path
       class="c"
       d="m 971.3375,83.5625 c -2.975,-4.1 -9.675,-6.3375 -16,-6.3375 -7.6375,0 -14.3,3.35 -14.3,10.45 0,7.1 6.6875,10.4375 14.3,10.4375 6.325,0 13.025,-2.2375 16,-6.525 z m 0,22.2 c -5.575,6.7125 -16.375,11.175 -27.9125,11.175 -13.7625,0 -30.875,-9.3125 -30.875,-29.6375 0,-21.825 17.15,-28.35 30.875,-28.35 11.9125,0 22.5125,3.725 27.9125,10.4375 V 58.025 c 0,-7.8375 -6.7,-13.0625 -18.225,-13.0625 -9.3375,0.0875 -18.3625,3.45 -25.4875,9.5 L 917.3875,36.375 c 11.5375,-9.8875 26.975,-13.9875 40.75,-13.9875 21.5875,0 41.8625,8.025 41.8625,36 V 114.7 h -28.65 v -8.95 z"
       id="path11" />
  </g>
  <metadata
     id="metadata1">
    <rdf:RDF>
      <cc:Work
         rdf:about="">
        <dc:title>Sustentarea</dc:title>
        <dc:creator>
          <cc:Agent>
            <dc:title>Sustentarea</dc:title>
          </cc:Agent>
        </dc:creator>
        <dc:rights>
          <cc:Agent>
            <dc:title>All Rights Reserved</dc:title>
          </cc:Agent>
        </dc:rights>
      </cc:Work>
    </rdf:RDF>
  </metadata>
</svg>
