<?xml version="1.0" encoding="UTF-8" standalone="no"?>
<!-- Created with Inkscape (http://www.inkscape.org/) -->

<svg
   width="2400"
   height="1600"
   viewBox="0 0 635 423.33333"
   version="1.1"
   id="svg1"
   xml:space="preserve"
   inkscape:version="1.4.3 (0d15f75042, 2025-12-25)"
   sodipodi:docname="og-image.svg"
   inkscape:export-filename="og-image.png"
   inkscape:export-xdpi="96"
   inkscape:export-ydpi="96"
   xmlns:inkscape="http://www.inkscape.org/namespaces/inkscape"
   xmlns:sodipodi="http://sodipodi.sourceforge.net/DTD/sodipodi-0.dtd"
   xmlns="http://www.w3.org/2000/svg"
   xmlns:svg="http://www.w3.org/2000/svg"
   xmlns:rdf="http://www.w3.org/1999/02/22-rdf-syntax-ns#"
   xmlns:cc="http://creativecommons.org/ns#"
   xmlns:dc="http://purl.org/dc/elements/1.1/"><title
     id="title1">Sustentarea Open Graph Image</title><sodipodi:namedview
     id="namedview1"
     pagecolor="#ffffff"
     bordercolor="#000000"
     borderopacity="0.24705882"
     inkscape:showpageshadow="0"
     inkscape:pageopacity="0"
     inkscape:pagecheckerboard="0"
     inkscape:deskcolor="#d1d1d1"
     inkscape:document-units="px"
     showguides="true"
     inkscape:zoom="0.25"
     inkscape:cx="1054"
     inkscape:cy="820"
     inkscape:window-width="1920"
     inkscape:window-height="1011"
     inkscape:window-x="0"
     inkscape:window-y="0"
     inkscape:window-maximized="1"
     inkscape:current-layer="layer2"><sodipodi:guide
       position="317.5,449.79166"
       orientation="-1,0"
       id="guide1"
       inkscape:locked="false"
       inkscape:label=""
       inkscape:color="rgb(0,134,229)" /><sodipodi:guide
       position="-26.458333,211.66667"
       orientation="0,1"
       id="guide2"
       inkscape:locked="false"
       inkscape:label=""
       inkscape:color="rgb(0,134,229)" /><sodipodi:guide
       position="-26.458333,381"
       orientation="0,1"
       id="guide3"
       inkscape:locked="false"
       inkscape:label=""
       inkscape:color="rgb(0,134,229)" /><sodipodi:guide
       position="-26.458333,42.333333"
       orientation="0,1"
       id="guide4"
       inkscape:locked="false"
       inkscape:label=""
       inkscape:color="rgb(0,134,229)" /><sodipodi:guide
       position="63.5,449.79166"
       orientation="-1,0"
       id="guide5"
       inkscape:locked="false"
       inkscape:label=""
       inkscape:color="rgb(0,134,229)" /><sodipodi:guide
       position="571.5,449.79166"
       orientation="-1,0"
       id="guide6"
       inkscape:locked="false"
       inkscape:label=""
       inkscape:color="rgb(0,134,229)" /></sodipodi:namedview><defs
     id="defs1"><style
       id="style1">
      .c {
        fill: #9ecd7a;
      }

      .c, .d, .e, .f {
        stroke-width: 0px;
      }

      .d {
        fill: #513024;
      }

      .e {
        fill: #ed6b4d;
      }

      .f {
        fill: #006909;
      }
    </style></defs><g
     inkscape:label="Background"
     inkscape:groupmode="layer"
     id="layer1"
     sodipodi:insensitive="true"><rect
       style="fill:#ffffff;stroke:none;stroke-width:1.0803"
       id="rect1"
       width="635"
       height="423.33334"
       x="0"
       y="0"
       inkscape:label="White" /></g><g
     inkscape:groupmode="layer"
     id="layer2"
     inkscape:label="Logo"
     transform="matrix(1.2,0,0,1.2,-58.134663,6.2146316)"
     style="stroke-width:0.833334"
     sodipodi:insensitive="true"><g
       inkscape:groupmode="layer"
       id="layer4"
       inkscape:label="Name"
       style="stroke-width:0.833334"><path
         class="f"
         d="m 206.10456,269.68022 c 1.46562,1.31007 4.60497,2.61576 6.92717,2.61576 1.87967,0 2.65082,-0.61341 2.65082,-1.46999 0,-1.02309 -1.34294,-1.39113 -3.38253,-1.71755 -3.34091,-0.5718 -8.07075,-1.25531 -8.07075,-6.28091 0,-3.47235 2.97504,-6.49779 8.43879,-6.49779 2.95315,-0.0306 5.83838,0.88726 8.23507,2.61577 l -2.40545,4.16682 c -1.18301,-1.14358 -3.42416,-2.16447 -5.78799,-2.16447 -1.46561,0 -2.48651,0.49073 -2.48651,1.34731 0,0.85659 1.06252,1.22464 3.13278,1.59269 3.34091,0.57397 8.31613,1.39113 8.31613,6.61827 0,3.76811 -3.30148,6.53723 -8.96678,6.53723 -3.50521,0 -7.13092,-1.18301 -9.21214,-3.02106 l 2.61577,-4.34646 z"
         id="path1" /><path
         class="f"
         d="m 238.17945,274.17785 c -1.22245,1.38894 -3.50522,2.85674 -6.80669,2.85674 -4.48229,0 -6.48026,-2.53032 -6.48026,-6.16698 v -14.05809 h 6.26338 v 11.4708 c 0,2.37041 1.22244,3.18756 3.25985,3.18756 1.48533,-0.009 2.87865,-0.72076 3.75934,-1.92129 v -12.74803 h 6.26337 v 19.73654 h -6.26337 v -2.35506 z"
         id="path2" /><path
         class="f"
         d="m 249.97449,269.68022 c 1.47,1.31007 4.60716,2.61576 6.92717,2.61576 1.87967,0 2.65082,-0.61341 2.65082,-1.46999 0,-1.02309 -1.34293,-1.39113 -3.38253,-1.71755 -3.34091,-0.5718 -8.06856,-1.25531 -8.06856,-6.28091 0,-3.47235 2.97505,-6.49779 8.43442,-6.49779 2.95314,-0.0306 5.83837,0.88726 8.23505,2.61577 l -2.40545,4.16682 c -1.18081,-1.14358 -3.42415,-2.16447 -5.78798,-2.16447 -1.46562,0 -2.48432,0.49073 -2.48432,1.34731 0,0.85659 1.05814,1.22464 3.13278,1.59269 3.34091,0.57397 8.31174,1.39113 8.31174,6.61827 0,3.76811 -3.30148,6.53723 -8.96677,6.53723 -3.50522,0 -7.13092,-1.18301 -9.21214,-3.02106 l 2.61577,-4.34646 z"
         id="path3" /><path
         class="f"
         d="m 270.05497,271.23566 v -8.94925 h -3.25985 v -5.47689 h 3.25985 v -5.39584 h 6.23052 v 5.39584 h 3.99375 v 5.47689 h -3.99375 v 7.19007 c 0,1.14577 0.65065,2.00236 1.75042,2.00236 0.69446,0 1.38674,-0.24537 1.59049,-0.49073 l 1.22244,4.7386 c -0.77333,0.73391 -2.32439,1.3057 -4.64441,1.3057 -3.98937,0 -6.14726,-2.00017 -6.14726,-5.79894 z"
         id="path4" /><path
         class="f"
         d="m 288.55812,264.57356 h 8.10799 c -0.16211,-1.39112 -1.18082,-3.39129 -4.07262,-3.39129 -2.73407,0 -3.78344,1.96073 -4.03756,3.39129 z m 4.03537,-8.25478 c 5.82961,0 10.06654,4.28951 10.06654,10.99105 v 1.34731 h -14.01867 c 0.36586,1.83804 2.07684,3.51398 5.01027,3.51398 1.7548,0 3.70895,-0.69448 4.81091,-1.67594 l 2.64862,3.92584 c -1.95854,1.7548 -5.21839,2.61357 -8.23506,2.61357 -6.07278,0 -10.75881,-3.96307 -10.75881,-10.36228 0,-5.73103 4.32017,-10.34914 10.47401,-10.34914 z"
         id="path5" /><path
         class="f"
         d="m 319.08414,265.13878 c 0,-2.41203 -1.25311,-3.26861 -3.21604,-3.26861 -1.50504,0.0109 -2.92027,0.71857 -3.83382,1.91911 v 12.74802 h -6.26338 v -19.72997 h 6.26338 v 2.41202 c 1.18301,-1.38894 3.50521,-2.90057 6.80668,-2.90057 4.48449,0 6.5219,2.61577 6.5219,6.25243 v 13.97266 h -6.26338 l -0.0132,-11.40509 z"
         id="path6" /><path
         class="f"
         d="m 331.23408,271.23566 v -8.94925 h -3.2708 v -5.47689 h 3.25985 v -5.39584 h 6.23271 v 5.39584 h 4.00689 v 5.47689 h -3.99594 v 7.19007 c 0,1.14577 0.65504,2.00236 1.7548,2.00236 0.69228,0 1.38456,-0.24537 1.59048,-0.49073 l 1.22245,4.7386 c -0.77334,0.73391 -2.3244,1.3057 -4.64879,1.3057 -3.99375,0 -6.15165,-2.00017 -6.15165,-5.79894 z"
         id="path7" /><path
         class="f"
         d="m 356.2153,269.72185 c -0.65066,-0.89822 -2.11628,-1.38895 -3.50522,-1.38895 -1.66935,0 -3.13277,0.73391 -3.13277,2.28935 0,1.55543 1.4678,2.28715 3.13277,2.28715 1.38676,0 2.85238,-0.49073 3.50522,-1.42838 z m 0,4.86348 c -1.22244,1.47 -3.58628,2.44926 -6.11003,2.44926 -3.01667,0 -6.76943,-2.04178 -6.76943,-6.4934 0,-4.78242 3.75934,-6.2108 6.76943,-6.2108 2.60481,0 4.92921,0.81716 6.11003,2.28496 v -2.49089 c 0,-1.71756 -1.46562,-2.86113 -3.99375,-2.86113 -2.04617,0.0219 -4.02224,0.758 -5.58424,2.08122 l -2.23896,-3.96308 c 2.52813,-2.16666 5.91066,-3.06487 8.92734,-3.06487 4.72546,0 9.16832,1.75918 9.16832,7.88891 v 12.33836 h -6.26338 l -0.0132,-1.95854 z"
         id="path8" /><path
         class="f"
         d="m 367.05736,256.80952 h 6.26338 v 2.49308 c 1.3035,-1.59268 3.79001,-2.98382 6.15383,-2.98382 v 6.08812 c -0.50167,-0.14677 -1.02527,-0.21688 -1.54667,-0.20374 -1.63212,0 -3.7922,0.69447 -4.60716,1.84024 v 12.50047 h -6.26338 v -19.73654 z"
         id="path9" /><path
         class="f"
         d="m 387.47303,264.57356 h 8.108 c -0.16212,-1.39112 -1.18082,-3.39129 -4.07262,-3.39129 -2.72749,0 -3.78563,1.96073 -4.03757,3.39129 z m 4.03976,-8.25478 c 5.82961,0 10.06654,4.28951 10.06654,10.99105 v 1.34731 h -14.01867 c 0.36586,1.83804 2.07684,3.51398 5.01027,3.51398 1.7548,0 3.70895,-0.69448 4.81091,-1.67594 l 2.64862,3.92584 c -1.95854,1.7548 -5.21839,2.61357 -8.23506,2.61357 -6.07278,0 -10.75881,-3.96307 -10.75881,-10.36228 0,-5.73103 4.32017,-10.34914 10.47401,-10.34914 z"
         id="path10" /><path
         class="f"
         d="m 416.28808,269.72185 c -0.65066,-0.89822 -2.12066,-1.38895 -3.50522,-1.38895 -1.67154,0 -3.13278,0.73391 -3.13278,2.28935 0,1.55543 1.46562,2.28715 3.13278,2.28715 1.38456,0 2.85237,-0.49073 3.50522,-1.42838 z m 0,4.86348 c -1.22245,1.47 -3.58628,2.44926 -6.11441,2.44926 -3.01668,0 -6.76506,-2.04178 -6.76506,-6.4934 0,-4.78242 3.75934,-6.2108 6.76506,-6.2108 2.60919,0 4.93358,0.81716 6.11441,2.28496 v -2.49089 c 0,-1.71756 -1.47,-2.86113 -3.99375,-2.86113 -2.04617,0.0197 -4.02224,0.75581 -5.58425,2.08122 l -2.24334,-3.96308 c 2.52814,-2.16666 5.91067,-3.06487 8.92734,-3.06487 4.72985,0 9.17052,1.75918 9.17052,7.88891 v 12.33836 h -6.27652 z"
         id="path11" /></g><g
       inkscape:groupmode="layer"
       id="layer3"
       inkscape:label="Symbol"
       style="stroke-width:0.833334"><path
         class="c"
         d="m 389.14459,119.09847 c -0.24318,-0.17308 -0.32205,-0.49731 -0.19061,-0.76239 2.0878,-4.22378 3.18099,-8.87038 3.19414,-13.58489 0,-21.745468 -23.3732,-39.374493 -52.20796,-39.374493 -9.39616,0 -18.23806,1.884052 -25.8619,5.167999 -0.13364,0.05696 -0.2848,0.05696 -0.42062,0 -7.62165,-3.286138 -16.45041,-5.167999 -25.85972,-5.167999 -28.83475,0 -52.20795,17.629025 -52.20795,39.374493 0.0132,4.71451 1.10633,9.36111 3.19412,13.58489 0.13145,0.26728 0.0504,0.58931 -0.19059,0.76239 -11.83229,8.09266 -19.39698,20.46825 -19.39698,34.34013 0,24.38094 23.55065,47.44744 52.20577,44.14377 17.85249,-2.05712 29.94985,-19.33344 39.46432,-30.21712 0.10077,-0.12269 0.25193,-0.19279 0.40967,-0.1906 h 0.42501 c 0.15554,0 1.78765,-1.28816 1.82927,-1.13043 2.06808,8.28983 25.08419,29.83155 42.8118,31.54035 28.70769,2.75159 52.20577,-19.76283 52.20577,-44.14378 -0.007,-13.87407 -7.57126,-26.24966 -19.40354,-34.34014 z"
         id="path12"
         style="fill:#9ecd7a;stroke-width:0px" /><path
         class="d"
         d="m 395.08373,166.99501 c 0.15554,-1.3276 -1.091,-2.4186 -2.34192,-2.86332 -2.07903,-0.73391 -4.36618,-0.41406 -6.55913,-0.0285 -14.24212,2.5128 -28.18849,6.78478 -42.77675,3.13936 -3.31899,-0.81059 -6.37072,-2.4668 -8.8638,-4.80652 -0.72076,-0.61999 -1.27721,-1.41085 -1.61897,-2.29811 -0.22127,-0.81935 -0.27385,-1.67374 -0.15555,-2.5128 0.51045,-6.25243 3.56656,-17.08791 -4.69918,-19.62043 -0.33299,-0.13363 -0.70103,-0.14898 -1.04279,-0.0417 -0.62656,0.25851 -0.72295,1.13043 -0.46663,1.76575 0.25632,0.63532 0.69008,1.18301 0.85878,1.84024 0.24974,0.9946 -0.19499,2.01988 -0.62657,2.95095 -1.15671,2.29372 -2.55661,4.45819 -4.17558,6.45178 -3.86888,5.07161 -5.47251,11.5212 -4.42971,17.81962 0.0285,0.18184 0.0526,0.36148 0.0745,0.53455 0.58493,4.50858 -5.47251,17.99927 9.12669,34.5636 1.53792,1.73946 4.51297,4.5721 7.93712,7.77718 v -18.09347 c -0.2585,-1.32102 0.5214,-2.62452 1.80738,-3.01667 16.00787,-8.16496 32.21291,-16.54241 49.80031,-20.66542 1.67812,-0.379 7.8933,-0.63532 8.15181,-2.89838 z"
         id="path13"
         style="fill:#513024;stroke-width:0px" /><path
         class="d"
         d="m 268.3659,167.02568 c 3.59285,0.85001 7.41572,0.62875 11.14657,0.37023 4.47791,-0.28917 9.08289,-0.62874 13.06131,-2.35505 -1.04281,-1.22683 -3.35186,-2.01989 -4.10548,-3.31682 -0.64408,-1.11728 -1.18083,-2.29372 -1.60364,-3.51397 -0.57398,-1.65184 -0.9245,-3.37596 -1.87967,-4.9073 -1.02966,-1.71756 -2.81951,-2.83484 -4.8109,-3.00134 0.69447,4.22598 1.93006,8.68198 2.06807,12.95614 -1.96949,-0.97707 -3.67609,-2.41421 -4.9774,-4.18872 -2.44708,-3.5578 -5.38707,-7.04986 -10.56164,-8.04885 -0.14459,-0.0438 -0.30014,-0.0438 -0.44473,0 -0.27165,0.10954 -0.22784,0.43377 -0.14459,0.67256 0.97489,2.4668 2.31344,4.77367 3.97184,6.84174 0.72296,0.94202 1.47439,1.86433 2.13818,2.82608 0.50826,0.7098 1.39332,3.17222 2.13818,3.52931 -4.1712,-2.13818 -8.98868,-4.22597 -12.29672,-7.24484 -0.48635,-0.50825 -1.02528,-0.96831 -1.60363,-1.36922 -1.22026,-0.65065 -2.58729,-0.96832 -3.96747,-0.92012 -0.758,0 -3.37377,-0.046 -3.85792,0.53017 -0.10735,0.15335 -0.092,0.36147 0.0373,0.49729 0.1183,0.15774 9.58675,9.21215 15.69239,10.64271 z"
         id="path14"
         style="fill:#513024;stroke-width:0px" /><path
         class="d"
         d="m 364.251,164.8656 c 6.1385,-1.44153 9.43997,-6.39702 14.13915,-9.63058 0.37243,-0.25413 0.74924,-0.47978 1.13919,-0.72952 0.17746,-0.0876 0.33957,-0.20812 0.47321,-0.3549 0.12487,-0.13145 0.14021,-0.33081 0.0373,-0.47978 -0.50168,-0.58932 -3.11307,-0.54988 -3.87107,-0.54331 -1.38675,-0.0504 -2.76255,0.26508 -3.98718,0.91793 -0.58931,0.40529 -1.13919,0.86753 -1.63868,1.38237 -3.31682,3.04953 -8.14305,5.13513 -12.34274,7.28865 0.74924,-0.38558 1.64526,-2.82608 2.15132,-3.55122 0.68572,-0.96174 1.44371,-1.88405 2.16667,-2.84798 1.66935,-2.07684 3.01448,-4.39686 3.99375,-6.8768 0.0854,-0.24098 0.12487,-0.56302 -0.14678,-0.67475 -0.1446,-0.0416 -0.30014,-0.0416 -0.44472,0 -5.19867,1.00775 -8.14305,4.52173 -10.61204,8.09923 -1.31226,1.78547 -3.03201,3.22918 -5.01026,4.21721 0.13363,-4.30265 1.37798,-8.76303 2.07683,-13.035 -2.11626,0.11391 -3.86449,1.47656 -4.82624,3.02104 -0.96174,1.54449 -1.31007,3.26862 -1.87967,4.9336 -0.42938,1.22682 -0.97269,2.40983 -1.62335,3.53588 -0.758,1.3035 -3.07582,2.09875 -4.12519,3.33433 3.97403,1.74604 8.61844,2.07246 13.11607,2.36383 3.76372,0.24537 7.6085,0.48635 11.2123,-0.36805 z"
         id="path15"
         style="fill:#513024;stroke-width:0px" /><path
         class="d"
         d="m 350.70773,233.18877 c -1.32541,-3.98718 -21.61182,-21.23065 -26.62209,-26.92442 -14.59921,-16.56213 -8.54177,-30.0594 -9.1267,-34.5614 -1.12824,-8.89667 -4.82405,-16.82502 -8.59215,-24.82568 -0.43597,-0.94202 -0.88726,-1.95634 -0.62656,-2.95095 0.16869,-0.65722 0.62656,-1.20272 0.85878,-1.84023 0.23222,-0.63751 0.13144,-1.50724 -0.49073,-1.76794 -0.34395,-0.10735 -0.71419,-0.092 -1.04937,0.0438 -8.24383,2.53033 -5.18772,13.36801 -4.69918,19.62042 0.11392,0.83907 0.0614,1.69346 -0.15336,2.51281 -0.34614,0.88287 -0.9004,1.66935 -1.61677,2.28934 -2.94657,2.82608 -6.86146,4.44285 -10.85521,5.25343 -13.87188,2.82609 -27.20483,-1.17643 -40.80068,-3.5775 -2.17323,-0.38558 -4.46257,-0.70543 -6.55912,0.0285 -1.25312,0.46882 -2.50624,1.53572 -2.34193,2.86332 0.26727,2.26305 6.48026,2.5128 8.18029,2.91809 17.58741,4.09452 31.91497,12.48294 47.92283,20.6457 0.56303,0.22784 1.05595,0.59808 1.43057,1.07786 4.42752,7.13749 5.11762,15.99034 1.84462,23.73029 -3.24232,7.88235 -16.69796,14.84457 -15.56972,15.79098 0.18402,0.15116 11.67674,-3.13936 25.0557,-4.41876 0.23879,-0.68351 0.44692,-1.37579 0.62656,-2.07464 1.17425,-4.25884 1.56639,-8.75209 1.45686,-13.25409 -0.046,-2.25867 -0.20375,-4.52392 -0.4754,-6.78916 -0.27166,-2.26306 -0.62656,-4.53049 -1.07786,-6.8045 1.00775,2.10532 1.81614,4.30265 2.41422,6.55914 0.60684,2.26743 1.04499,4.57648 1.31007,6.90746 0.50826,4.6685 0.31328,9.50131 -0.96174,14.13038 -0.10296,0.36805 -0.21689,0.7339 -0.333,1.10195 2.52157,-0.17526 5.08257,-0.26727 7.62603,-0.23879 17.26318,0.17308 33.65443,5.82085 33.22285,4.5524 z"
         id="path16"
         style="fill:#513024;stroke-width:0px" /><path
         class="f"
         d="m 258.15258,86.280912 c 0.54551,1.03842 1.27065,1.97168 2.14257,2.75378 0.8522,0.8062 1.75479,1.59268 2.64424,2.3704 1.78328,1.55106 3.63885,3.01667 5.70911,4.02662 2.07028,1.00775 4.32238,1.64526 6.61172,2.17542 l 3.47453,0.79086 c 1.16768,0.26728 2.33754,0.57179 3.49208,0.90697 2.32001,0.66819 4.5984,1.467818 6.82859,2.396688 2.23019,0.93765 4.37494,2.07246 6.40797,3.38911 1.03622,0.67256 2.02426,1.41961 2.95313,2.23676 0.92669,0.82154 1.77452,1.7307 2.53033,2.71216 0.75801,0.98365 1.38895,2.05931 1.87967,3.2007 0.48416,1.13043 0.77334,2.33316 0.8544,3.55998 l -0.21688,0.0417 c -0.76458,-2.19514 -2.02864,-4.18216 -3.68925,-5.80551 -0.80619,-0.8062 -1.67154,-1.54887 -2.58947,-2.22362 -0.91355,-0.68352 -1.8731,-1.30569 -2.86989,-1.86214 -2.02426,-1.15892 -4.07919,-2.24991 -6.16698,-3.27738 -2.09218,-1.0406 -4.25227,-1.9432 -6.46055,-2.70339 -2.19295,-0.76896 -4.47791,-1.338558 -6.79135,-1.976068 -2.31125,-0.6375 -4.62908,-1.38894 -6.77163,-2.58728 -2.14257,-1.19834 -3.95213,-2.82608 -5.65435,-4.49982 -0.85221,-0.84125 -1.69346,-1.66716 -2.50623,-2.54347 -0.84344,-0.86973 -1.52257,-1.88405 -2.01111,-2.99258 l 0.19717,-0.0876 z"
         id="path17"
         style="fill:#006909;stroke-width:0px" /><path
         class="f"
         d="m 304.36005,119.05027 c -1.4678,-2.62891 -2.3463,-5.54919 -2.57413,-8.55491 -0.11173,-1.50286 -0.10516,-3.01229 0.0219,-4.51296 0.12487,-1.4941 0.32861,-2.95533 0.5915,-4.42533 0.49949,-2.955328 1.36484,-5.833988 2.57852,-8.572438 0.61561,-1.37361 1.37142,-2.6793 2.25429,-3.89736 0.43815,-0.60684 0.9245,-1.17863 1.45029,-1.71099 0.51702,-0.53454 1.08223,-1.02089 1.68907,-1.45027 -1.83147,2.31343 -3.00572,4.94235 -3.89955,7.64574 -0.85659,2.72968 -1.50286,5.52071 -1.93663,8.348978 -0.11611,0.70981 -0.22127,1.41961 -0.31328,2.13161 -0.10078,0.71199 -0.18402,1.42837 -0.26289,2.13599 -0.15992,1.41961 -0.27823,2.82607 -0.31328,4.24788 -0.0373,1.42399 0.009,2.85017 0.14021,4.2676 0.13363,1.43275 0.35052,2.86989 0.57397,4.34208 z"
         id="path18"
         style="fill:#006909;stroke-width:0px" /><path
         class="f"
         d="m 279.72937,99.916192 -7.10463,-1.16768 c -2.35289,-0.43377 -4.74081,-0.65503 -7.1353,-0.66161 -2.36384,0.0109 -4.70794,0.46445 -6.90528,1.33418 -1.09319,0.4491 -2.13161,1.016508 -3.09773,1.695638 -0.96831,0.69666 -1.87091,1.48095 -2.69682,2.34192 l -0.0503,-0.0417 c 1.44371,-1.98263 3.37376,-3.553398 5.60614,-4.558968 1.11948,-0.49949 2.29811,-0.8522 3.5074,-1.05156 1.20274,-0.19498 2.4186,-0.28042 3.63667,-0.25412 2.41421,0.0767 4.81528,0.37023 7.17473,0.88287 l 7.063,1.41961 v 0.0635 z"
         id="path19"
         style="fill:#006909;stroke-width:0px" /><path
         class="f"
         d="m 316.47494,139.53385 c -0.34832,-3.54245 0.0614,-7.11777 1.20274,-10.48715 0.5674,-1.69784 1.32978,-3.32119 2.27181,-4.84158 0.94422,-1.53791 2.08999,-2.93999 3.40663,-4.16901 1.3276,-1.22902 2.81512,-2.274 4.41876,-3.10869 1.58391,-0.81277 3.21603,-1.52915 4.88539,-2.14694 1.66059,-0.62874 3.35186,-1.19396 5.05189,-1.68031 1.70002,-0.48635 3.40443,-0.94203 5.09351,-1.38237 3.37596,-0.88288 6.65771,-1.9191 9.70944,-3.38472 1.50943,-0.72295 3.05611,-1.57077 4.57211,-2.39888 1.51601,-0.82811 3.00353,-1.70222 4.44066,-2.63987 1.43495,-0.93545 2.81732,-1.95196 4.13835,-3.04295 1.31007,-1.093198 2.52594,-2.293728 3.63885,-3.588458 0.55426,-0.65066 1.07347,-1.32761 1.56639,-2.02865 0.49073,-0.70104 0.93983,-1.44152 1.34951,-2.19733 0.82153,-1.53134 1.48314,-3.14155 1.96949,-4.8109 l 0.2125,0.0438 c -0.23222,1.77013 -0.69228,3.50303 -1.36484,5.15705 -0.6879,1.66716 -1.56858,3.24889 -2.62453,4.71012 -1.05595,1.46344 -2.2521,2.819508 -3.56655,4.052908 -0.65285,0.62874 -1.3276,1.22244 -2.02426,1.78328 -0.69447,0.56521 -1.41304,1.10633 -2.13818,1.62335 -1.45905,1.03842 -2.96191,2.00235 -4.49763,2.8918 -0.76676,0.44691 -1.53791,0.88287 -2.31563,1.29912 -0.38557,0.21031 -0.77334,0.41843 -1.18301,0.62875 -0.40967,0.21031 -0.80182,0.41843 -1.22245,0.59369 -1.63868,0.74705 -3.33214,1.36922 -5.06503,1.85557 -1.71974,0.4973 -3.44605,0.89821 -5.16142,1.28817 -3.42854,0.76019 -6.80888,1.51382 -10.06873,2.65739 -1.63649,0.54549 -3.23794,1.18958 -4.79556,1.92787 -1.53573,0.7317 -2.96629,1.66716 -4.25665,2.77787 -2.58071,2.28497 -4.56335,5.16801 -5.77922,8.39718 -1.25092,3.25766 -1.81395,6.73877 -1.65402,10.22427 h -0.2125 z"
         id="path20"
         style="fill:#006909;stroke-width:0px" /><path
         class="f"
         d="m 331.09607,116.39069 c 1.18958,-1.26845 2.28496,-2.62234 3.27956,-4.05071 0.97927,-1.39333 1.87967,-2.8458 2.81951,-4.30484 l 0.70761,-1.09976 0.71419,-1.08443 c 0.46444,-0.6879 0.89164,-1.40208 1.28159,-2.13599 0.379,-0.72076 0.66161,-1.48752 0.84345,-2.28057 0.19497,-0.83687 0.22564,-1.702228 0.0898,-2.550048 0.57835,0.75143 0.92011,1.656208 0.98365,2.602618 0.0789,0.96174 -0.0263,1.93225 -0.31328,2.85456 -0.27604,0.89383 -0.64408,1.75699 -1.09977,2.57414 -0.43158,0.79744 -0.88725,1.54448 -1.36265,2.30249 -0.95736,1.53572 -2.08122,2.9619 -3.35185,4.24787 -1.3057,1.25531 -2.84361,2.3704 -4.59183,2.92029 z"
         id="path21"
         style="fill:#006909;stroke-width:0px" /><path
         class="f"
         d="m 372.57588,125.40347 c -2.86332,-0.65504 -5.82742,-0.75581 -8.73017,-0.29576 -0.95079,0.14021 -1.89281,0.34396 -2.8195,0.60904 -0.91793,0.26508 -1.81176,0.60464 -2.67492,1.01431 l -2.57415,1.18301 c -0.90258,0.40749 -1.80518,0.77554 -2.69681,1.15892 -0.89165,0.38338 -1.79205,0.78429 -2.74941,1.17862 l -0.14021,-0.16649 c 1.13043,-1.77014 2.86551,-3.06706 4.56116,-4.10987 0.89164,-0.54769 1.85119,-0.97489 2.85237,-1.27283 0.99899,-0.28261 2.0133,-0.51263 3.03858,-0.68789 1.01213,-0.18183 2.03521,-0.29795 3.06268,-0.34833 1.02308,-0.0416 2.04617,-0.0132 3.06706,0.0854 2.01769,0.19716 3.99594,0.6857 5.87343,1.45466 l -0.0679,0.19717 z"
         id="path22"
         style="fill:#006909;stroke-width:0px" /><path
         class="f"
         d="m 351.68262,128.5954 c 2.0637,-0.99022 4.33332,-1.47438 6.62047,-1.41303 0.2848,0 0.57398,0 0.85878,0.0241 0.28479,0.0263 0.5674,0.0591 0.84783,0.0964 0.2826,0.0373 0.56302,0.0854 0.84563,0.13145 l 0.83029,0.20374 0.82373,0.21908 0.80838,0.26289 0.80401,0.26289 0.79306,0.28918 0.79306,0.28918 0.77333,0.31328 0.77334,0.31328 0.758,0.35271 0.75581,0.35709 0.7361,0.38557 c 0.49511,0.25194 0.97927,0.51922 1.46342,0.79087 1.91692,1.10195 3.75935,2.27401 5.60397,3.48331 l -0.10735,0.19497 c -2.00235,-0.90478 -3.96528,-1.88405 -5.97859,-2.69025 -0.49729,-0.21251 -0.99898,-0.42063 -1.50724,-0.62875 l -0.75581,-0.29137 -0.76457,-0.26727 -0.758,-0.26946 -0.76677,-0.24099 -0.76677,-0.23879 -0.77333,-0.20374 -0.77334,-0.19717 -0.7821,-0.14678 -0.77991,-0.1424 -0.78648,-0.0942 -0.77991,-0.11392 -0.77992,-0.0876 c -0.2607,-0.0306 -0.51701,-0.0701 -0.77771,-0.10954 -0.2607,-0.0416 -0.51702,-0.057 -0.77772,-0.092 -0.51921,-0.0657 -1.04061,-0.15117 -1.56639,-0.18183 -0.52579,-0.0306 -1.05157,-0.13145 -1.58392,-0.1446 -0.26728,-0.0153 -0.53235,-0.0306 -0.80401,-0.057 -0.27165,-0.0263 -0.54111,-0.0591 -0.81058,-0.0591 -0.5455,-0.0241 -1.09318,-0.0482 -1.66278,-0.12268 l -0.0438,-0.18184 z"
         id="path23"
         style="fill:#006909;stroke-width:0px" /><path
         class="f"
         d="m 251.2276,139.09132 c 1.51162,-0.65942 2.97724,-1.42399 4.3859,-2.28715 1.4459,-0.85658 2.94437,-1.61678 4.48886,-2.28058 3.12402,-1.31226 6.41673,-2.17542 9.78173,-2.56537 3.32776,-0.36805 6.67963,-0.46445 10.02272,-0.28919 3.32338,0.14022 6.61828,0.38996 9.93728,0.72515 -3.30366,0.46224 -6.63361,0.62874 -9.93508,0.76676 -3.30148,0.13802 -6.57666,0.28042 -9.81022,0.66599 -3.21823,0.37024 -6.39044,1.05595 -9.47503,2.04836 -1.56639,0.49511 -3.07582,1.07347 -4.60935,1.71098 -1.53573,0.63751 -3.13498,1.24654 -4.78681,1.50505 z"
         id="path24"
         style="fill:#006909;stroke-width:0px" /><path
         class="f"
         d="m 257.25657,122.7417 c 1.25311,0.65284 2.40545,1.39989 3.55778,2.12942 1.15234,0.72952 2.28278,1.46342 3.41759,2.15789 1.13482,0.69447 2.25867,1.37141 3.40225,2.00674 1.13262,0.65065 2.33534,1.17205 3.58626,1.55105 1.27283,0.36805 2.57634,0.61561 3.89298,0.74047 1.33418,0.15993 2.7034,0.25852 4.07263,0.37463 2.72748,0.25412 5.45936,0.47758 8.19123,0.75581 v 0.21907 c -2.74282,0.0701 -5.48346,0.0789 -8.2241,0.12269 -1.36922,0 -2.73845,0.0285 -4.13396,0 -1.41742,-0.035 -2.82827,-0.20155 -4.21501,-0.49511 -1.40428,-0.30452 -2.78008,-0.73829 -4.1033,-1.29912 -1.31226,-0.56303 -2.55223,-1.28379 -3.69361,-2.14475 -1.12167,-0.84125 -2.17761,-1.76794 -3.16127,-2.76912 -0.98365,-0.98804 -1.89719,-2.04837 -2.7275,-3.16784 l 0.14022,-0.17964 z"
         id="path25"
         style="fill:#006909;stroke-width:0px" /><path
         class="e"
         d="m 276.44323,114.64685 c 0,0.55425 -0.10516,1.08661 -0.31767,1.59925 -0.2125,0.51264 -0.51263,0.96393 -0.90259,1.35608 -0.38995,0.39214 -0.84125,0.69447 -1.35169,0.90697 -0.51046,0.2125 -1.04281,0.31766 -1.59488,0.31766 -0.55207,0 -1.08442,-0.10734 -1.59487,-0.31766 -0.51045,-0.2125 -0.96174,-0.51483 -1.3517,-0.90697 -0.38995,-0.39215 -0.69228,-0.84344 -0.90259,-1.35608 -0.2125,-0.51264 -0.31766,-1.045 -0.31766,-1.59925 0,-0.55426 0.10516,-1.08662 0.31766,-1.59926 0.2125,-0.51264 0.51264,-0.96393 0.90259,-1.35607 0.38996,-0.39215 0.84125,-0.69448 1.3517,-0.90698 0.51045,-0.2125 1.0428,-0.31767 1.59487,-0.31767 0.55207,0 1.08442,0.10735 1.59488,0.31767 0.51044,0.2125 0.96174,0.51483 1.35169,0.90698 0.38996,0.39214 0.69228,0.84343 0.90259,1.35607 0.21251,0.51264 0.31767,1.045 0.31767,1.59926 z"
         id="path26"
         style="fill:#ed6b4d;stroke-width:0px" /><path
         class="e"
         d="m 324.11631,101.56363 c 0,0.68133 -0.12925,1.33637 -0.38995,1.96511 -0.2607,0.62875 -0.63094,1.18521 -1.11072,1.66717 -0.47978,0.48197 -1.03403,0.85221 -1.66278,1.11291 -0.62875,0.2607 -1.2816,0.38995 -1.96073,0.38995 -0.67914,0 -1.33198,-0.13144 -1.96073,-0.38995 -0.62875,-0.2607 -1.18082,-0.63094 -1.66279,-1.11291 -0.47977,-0.48196 -0.85001,-1.03622 -1.11071,-1.66717 -0.2607,-0.62874 -0.38996,-1.28597 -0.38996,-1.96511 0,-0.67913 0.12926,-1.33636 0.38996,-1.965108 0.2607,-0.62874 0.63094,-1.18519 1.11071,-1.66716 0.47978,-0.48197 1.03404,-0.85221 1.66279,-1.11291 0.62875,-0.2607 1.28159,-0.38995 1.96073,-0.38995 0.67913,0 1.33198,0.13145 1.96073,0.38995 0.62875,0.2607 1.18082,0.63313 1.66278,1.11291 0.47978,0.48197 0.85002,1.03623 1.11072,1.66716 0.2607,0.628748 0.38995,1.285978 0.38995,1.965108 z"
         id="path27"
         style="fill:#ed6b4d;stroke-width:0px" /><path
         class="e"
         d="m 290.53856,81.859962 c 0,0.55864 -0.10734,1.09538 -0.31985,1.61021 -0.2125,0.51482 -0.51702,0.9705 -0.90916,1.36484 -0.39434,0.39434 -0.84782,0.69885 -1.36046,0.91135 -0.51483,0.21251 -1.04938,0.31985 -1.60583,0.31985 -0.55645,0 -1.091,-0.10734 -1.60583,-0.31985 -0.51482,-0.2125 -0.96831,-0.51701 -1.36045,-0.91135 -0.39434,-0.39434 -0.69667,-0.85002 -0.90917,-1.36484 -0.21251,-0.51483 -0.31985,-1.05157 -0.31985,-1.61021 0,-0.558646 0.10734,-1.09538 0.31985,-1.610205 0.2125,-0.514834 0.51702,-0.970508 0.90917,-1.364845 0.39433,-0.394337 0.84781,-0.698852 1.36045,-0.911355 0.51483,-0.214695 1.04938,-0.319851 1.60583,-0.319851 0.55645,0 1.091,0.107347 1.60583,0.319851 0.51482,0.212503 0.96831,0.517018 1.36046,0.911355 0.39434,0.394337 0.69666,0.850011 0.90916,1.364845 0.21251,0.514825 0.31985,1.051559 0.31985,1.610205 z"
         id="path28"
         style="fill:#ed6b4d;stroke-width:0px" /><path
         class="e"
         d="m 341.30281,130.16179 c 0,0.55426 -0.10516,1.08662 -0.31766,1.59926 -0.2125,0.51264 -0.51264,0.96393 -0.9026,1.35607 -0.39214,0.39216 -0.84125,0.69448 -1.35169,0.90698 -0.51045,0.2125 -1.0428,0.31766 -1.59487,0.31766 -0.55208,0 -1.08443,-0.10735 -1.59488,-0.31766 -0.51044,-0.2125 -0.96174,-0.51482 -1.35169,-0.90698 -0.38996,-0.39214 -0.69228,-0.84343 -0.90259,-1.35607 -0.21251,-0.51264 -0.31767,-1.045 -0.31767,-1.59926 0,-0.55426 0.10516,-1.08661 0.31767,-1.59925 0.2125,-0.51264 0.51263,-0.96394 0.90259,-1.35608 0.38995,-0.39214 0.84125,-0.69447 1.35169,-0.90698 0.51045,-0.2125 1.0428,-0.31765 1.59488,-0.31765 0.55207,0 1.08442,0.10734 1.59487,0.31765 0.51044,0.21251 0.96174,0.51484 1.35169,0.90698 0.38996,0.39214 0.69228,0.84344 0.9026,1.35608 0.2125,0.51264 0.31766,1.04499 0.31766,1.59925 z"
         id="path29"
         style="fill:#ed6b4d;stroke-width:0px" /><path
         class="e"
         d="m 356.96673,87.650132 c 0,0.55865 -0.10735,1.09538 -0.31985,1.61021 -0.2125,0.51483 -0.51702,0.9705 -0.90916,1.36484 -0.39434,0.39434 -0.84783,0.69885 -1.36047,0.91136 -0.51482,0.21469 -1.04937,0.31985 -1.60582,0.31985 -0.55646,0 -1.091,-0.10735 -1.60583,-0.31985 -0.51483,-0.21251 -0.96831,-0.51702 -1.36046,-0.91136 -0.39433,-0.39434 -0.69666,-0.85001 -0.90917,-1.36484 -0.2125,-0.51483 -0.31984,-1.05156 -0.31984,-1.61021 0,-0.55864 0.10734,-1.09537 0.31984,-1.61021 0.21251,-0.51482 0.51702,-0.9705 0.90917,-1.36483 0.39434,-0.39434 0.84783,-0.69886 1.36046,-0.91136 0.51483,-0.2147 1.04937,-0.31985 1.60583,-0.31985 0.55645,0 1.091,0.10735 1.60582,0.31985 0.51483,0.2125 0.96831,0.51702 1.36047,0.91136 0.39433,0.39433 0.69666,0.85001 0.90916,1.36483 0.2125,0.51484 0.31985,1.05157 0.31985,1.61021 z"
         id="path30"
         style="fill:#ed6b4d;stroke-width:0px" /></g></g><metadata
     id="metadata1"><rdf:RDF><cc:Work
         rdf:about=""><dc:title>Sustentarea Open Graph Image</dc:title><dc:creator><cc:Agent><dc:title>Sustentarea</dc:title></cc:Agent></dc:creator><dc:rights><cc:Agent><dc:title>All Rights Reserved</dc:title></cc:Agent></dc:rights></cc:Work></rdf:RDF></metadata></svg>
