<?xml version="1.0" encoding="UTF-8" standalone="no"?>
<svg
   id="a"
   data-name="Contents"
   viewBox="0 0 1000 880.37904"
   version="1.1"
   sodipodi:docname="symbol-outline.svg"
   inkscape:export-filename="symbol-outline.png"
   inkscape:export-xdpi="96"
   inkscape:export-ydpi="96"
   inkscape:version="1.4.3 (0d15f75042, 2025-12-25)"
   width="1000"
   height="880.37903"
   xmlns:inkscape="http://www.inkscape.org/namespaces/inkscape"
   xmlns:sodipodi="http://sodipodi.sourceforge.net/DTD/sodipodi-0.dtd"
   xmlns="http://www.w3.org/2000/svg"
   xmlns:svg="http://www.w3.org/2000/svg"
   xmlns:rdf="http://www.w3.org/1999/02/22-rdf-syntax-ns#"
   xmlns:cc="http://creativecommons.org/ns#"
   xmlns:dc="http://purl.org/dc/elements/1.1/">
  <title
     id="title1">Sustentarea Symbol</title>
  <sodipodi:namedview
     id="namedview19"
     pagecolor="#ffffff"
     bordercolor="#000000"
     borderopacity="0.24705882"
     inkscape:showpageshadow="0"
     inkscape:pageopacity="0"
     inkscape:pagecheckerboard="0"
     inkscape:deskcolor="#d1d1d1"
     inkscape:zoom="0.45327088"
     inkscape:cx="560.37132"
     inkscape:cy="421.38158"
     inkscape:window-width="1920"
     inkscape:window-height="1011"
     inkscape:window-x="0"
     inkscape:window-y="0"
     inkscape:window-maximized="1"
     inkscape:current-layer="layer1" />
  <defs
     id="defs1">
    <style
       id="style1">
      .c {
        fill: #9ecd7a;
      }

      .c, .d, .e, .f {
        stroke-width: 0px;
      }

      .d {
        fill: #513024;
      }

      .e {
        fill: #ed6b4d;
      }

      .f {
        fill: #006909;
      }
    </style>
  </defs>
  <g
     inkscape:groupmode="layer"
     id="layer1"
     inkscape:label="Symbol"
     sodipodi:insensitive="true">
    <path
       style="baseline-shift:baseline;display:inline;overflow:visible;opacity:1;vector-effect:none;fill:#006909;enable-background:accumulate;stop-color:#000000;stop-opacity:1"
       d="M 365,0 C 288.35499,0 218.78578,23.351813 167.95508,61.6875 117.12438,100.02319 84.882812,153.8592 84.882812,213.66602 v 0.0137 0.0137 c 0.06752,24.00913 5.29496,47.68889 15.193358,69.50976 C 39.243211,326.69181 0,392.23112 0,465.75586 0,598.29493 127.09211,721.82544 281.2207,704.05273 378.1891,692.88306 441.54689,602.30846 489.92969,546.53906 c 1.95184,-0.17394 2.64888,-0.597 3.14258,-0.82226 0.13736,-0.0627 0.17576,-0.0967 0.28906,-0.15235 5.08904,10.54909 13.17646,21.84219 23.64453,34.17774 14.59865,17.203 33.75142,35.79812 55.50391,53.33789 43.50497,35.07953 97.04643,66.23668 146.45117,71.00195 h 0.002 0.004 C 873.16617,718.86019 1000,598.29049 1000,465.76562 v -0.002 -0.004 c -0.0301,-73.52331 -39.27324,-139.06025 -100.10742,-182.54883 9.90053,-21.82286 15.12778,-45.50581 15.19531,-69.51758 v -0.0137 -0.0137 c 0,-59.80682 -32.24157,-113.64283 -83.07227,-151.97852 C 781.18493,23.351813 711.61571,0 634.9707,0 586.13323,0 540.09425,9.6123869 499.98242,26.447266 459.87335,9.5942782 413.89994,0 365,0 Z m 0,19.607422 c 47.40956,0 91.81703,9.485646 130.00781,25.96289 l 0.0352,0.01563 0.0332,0.01367 c 3.12823,1.321786 6.68032,1.321823 9.8086,0 l 0.0312,-0.01367 0.0332,-0.01367 c 38.19119,-16.45845 82.68504,-25.96485 130.02149,-25.96485 72.64911,0 138.23565,22.285748 185.23828,57.734375 46.9974,35.444673 75.26518,83.532143 75.27149,136.306643 -0.0659,22.89662 -5.37494,45.48107 -15.51758,65.99218 -1.74609,3.51717 -1.54146,7.48949 -0.0312,10.92383 v 2.56836 l 4.26953,2.91992 c 59.02812,40.37225 96.16347,101.44476 96.19141,169.7168 -0.003,119.92303 -116.47792,232.50317 -259.54883,218.79492 h -0.006 c -42.37854,-4.08971 -94.31558,-33.1227 -136.01953,-66.75 -20.85291,-16.8144 -39.23705,-34.70266 -52.86328,-50.75976 -13.62623,-16.05711 -22.32297,-30.85468 -24.20703,-38.40821 l -0.0176,-0.0684 -0.0176,-0.0703 c -0.62014,-2.3396 -2.86063,-5.16347 -5.10937,-6.29687 -2.24875,-1.13341 -3.9469,-1.11042 -5.04883,-1.04883 -2.20387,0.12317 -2.86783,0.55406 -3.49414,0.8125 -1.25263,0.51688 -1.77834,0.87447 -2.39844,1.25391 -1.2402,0.75887 -2.39545,1.56669 -3.55469,2.37695 -0.85044,0.59442 -1.54497,1.07724 -2.2207,1.54492 -3.4867,0.18199 -6.80238,1.7577 -9.05274,4.51758 l 0.2168,-0.25977 C 427.10082,588.52368 365.70603,674.58396 278.97656,684.57422 h -0.002 C 136.3777,701.01719 19.607422,585.66776 19.607422,465.75586 c 0,-68.26965 37.133986,-129.34063 96.162108,-169.71289 l 0.0742,-0.0508 0.0723,-0.0508 c 5.13701,-3.65208 6.891,-10.65838 4.08984,-16.30079 l 0.008,0.0137 c -10.14695,-20.51467 -15.45753,-43.10426 -15.52344,-66.00586 -1e-5,-0.003 1e-5,-0.007 0,-0.01 0.01,-52.77064 28.27701,-100.8544 75.27149,-136.296873 C 226.76436,41.89317 292.35089,19.607422 365,19.607422 Z m 132.26367,7.927734 c -0.0242,0.01044 -0.05,0.01885 -0.0742,0.0293 l 0.0625,-0.02734 c 0.004,-0.0016 0.008,-3.95e-4 0.0117,-0.002 z m 5.43164,0 c 0.004,0.0018 0.009,1.36e-4 0.0137,0.002 l 0.0664,0.0293 c -0.0261,-0.01127 -0.054,-0.01999 -0.0801,-0.03125 z M 104.70117,279.85937 c -0.0545,0.0373 -0.10567,0.0779 -0.16015,0.11524 0.005,-0.004 0.008,-0.01 0.0137,-0.0137 z m 384.02149,253.53321 c 0.0139,0.0559 0.0366,0.11403 0.0508,0.16992 -0.003,-0.01 -0.013,-0.0213 -0.0156,-0.0312 z"
       id="path1" />
    <path
       class="f"
       d="m 211.50981,118.03922 c 2.82353,5.37255 6.57843,10.20588 11.08824,14.2549 4.41176,4.17647 9.07843,8.2451 13.68627,12.27451 9.22549,8.02941 18.84314,15.62745 29.55883,20.84314 10.71568,5.21568 22.38235,8.5196 34.23529,11.2647 l 17.9804,4.09804 c 6.04902,1.38235 12.09803,2.96079 18.07843,4.69608 12.0098,3.46078 23.81372,7.60784 35.35294,12.40196 11.54902,4.86275 22.65686,10.72549 33.17647,17.53922 5.37255,3.48039 10.48039,7.35294 15.29412,11.57843 4.80392,4.2549 9.18627,8.96078 13.10784,14.04902 3.92157,5.08823 7.19608,10.65686 9.72549,16.56863 2.50981,5.84313 4.00981,12.07843 4.43138,18.44117 l -1.11765,0.21569 c -3.96079,-11.37255 -10.5,-21.65686 -19.10785,-30.05882 -4.16666,-4.17647 -8.64705,-8.01961 -13.41176,-11.50981 -4.73529,-3.53921 -9.69608,-6.7647 -14.85294,-9.63725 -10.48039,-5.9902 -21.11765,-11.64706 -31.93138,-16.97059 -10.83333,-5.38236 -22.0098,-10.05883 -33.45098,-14 -11.35294,-3.98039 -23.18627,-6.93138 -35.15686,-10.22549 -11.97059,-3.30392 -23.97059,-7.18628 -35.05882,-13.39216 -11.08824,-6.20588 -20.46079,-14.62745 -29.27451,-23.29412 -4.41177,-4.35294 -8.77451,-8.63725 -12.97059,-13.16667 -4.36275,-4.5 -7.89216,-9.7549 -10.41177,-15.49019 l 1.01961,-0.45098 z"
       id="path6"
       style="fill:#006909" />
    <path
       class="f"
       d="m 450.75492,287.70589 c -7.59804,-13.61765 -12.14706,-28.72549 -13.33334,-44.28432 -0.57843,-7.77451 -0.53921,-15.58823 0.11765,-23.36274 0.64706,-7.7353 1.70588,-15.30393 3.06863,-22.91177 2.57843,-15.29412 7.06863,-30.20588 13.34314,-44.38235 3.18627,-7.10785 7.09803,-13.87255 11.67647,-20.17647 2.27451,-3.13726 4.78431,-6.10785 7.5098,-8.86275 2.67647,-2.76471 5.60784,-5.28431 8.7451,-7.5098 -9.4902,11.98039 -15.56863,25.58823 -20.18628,39.58823 -4.43137,14.13726 -7.78431,28.58824 -10.0196,43.2353 -0.60785,3.67647 -1.14706,7.35294 -1.61765,11.03921 -0.51961,3.69608 -0.96079,7.39216 -1.36275,11.05883 -0.82353,7.35294 -1.44117,14.63725 -1.61764,22 -0.19608,7.37255 0.049,14.7549 0.72549,22.09804 0.69608,7.41176 1.81372,14.86274 2.97058,22.49019 z"
       id="path7"
       style="fill:#006909" />
    <path
       class="f"
       d="m 323.2255,188.62745 -36.77451,-6.04902 c -12.18627,-2.24509 -24.54902,-3.39215 -36.94118,-3.43137 -12.24509,0.0588 -24.37255,2.40196 -35.7549,6.91177 -5.65686,2.32353 -11.02941,5.2647 -16.03921,8.77451 -5.01961,3.60784 -9.68628,7.66666 -13.96079,12.12745 l -0.2549,-0.20589 c 7.47059,-10.2647 17.47059,-18.39215 29.02941,-23.60784 5.79412,-2.57843 11.90196,-4.41176 18.16667,-5.45098 6.22549,-1.0098 12.52941,-1.45098 18.82353,-1.31373 12.5,0.39216 24.93137,1.92157 37.15686,4.56863 l 36.56863,7.35294 v 0.32353 z"
       id="path8"
       style="fill:#006909" />
    <path
       class="f"
       d="m 513.48041,393.76471 c -1.80392,-18.34313 0.31372,-36.85294 6.22549,-54.30392 2.94118,-8.78431 6.88235,-17.19608 11.7549,-25.06863 4.88235,-7.96078 10.82353,-15.22549 17.64706,-21.58823 6.88235,-6.36275 14.57843,-11.77451 22.88235,-16.09804 8.20589,-4.20589 16.65687,-7.92157 25.29412,-11.11765 8.59804,-3.2549 17.35294,-6.17647 26.15687,-8.69608 8.80392,-2.51961 17.62745,-4.87255 26.37255,-7.15686 17.48039,-4.56863 34.48039,-9.93138 50.27451,-17.52941 7.81372,-3.7353 15.82353,-8.12746 23.67647,-12.42157 7.85294,-4.29412 15.54902,-8.81373 23,-13.67647 7.43137,-4.84314 14.58823,-10.10785 21.42157,-15.75491 6.78431,-5.66666 13.08823,-11.88235 18.84313,-18.58823 2.87255,-3.36275 5.55883,-6.87255 8.10785,-10.5 2.54902,-3.62745 4.86274,-7.46079 6.99019,-11.38236 4.25491,-7.92156 7.67648,-16.27451 10.19608,-24.91176 l 1.09804,0.22549 c -1.20588,9.16667 -3.57843,18.13725 -7.06863,26.69608 -3.55882,8.63725 -8.11764,16.82353 -13.58823,24.39216 -5.47059,7.57843 -11.65686,14.59804 -18.47059,20.99019 -3.38235,3.2549 -6.87255,6.33334 -10.48039,9.2353 -3.59804,2.93137 -7.31373,5.72549 -11.07843,8.40196 -7.55883,5.38235 -15.34314,10.37255 -23.28432,14.97059 -3.97059,2.30392 -7.96078,4.56862 -11.98039,6.73529 -1.9902,1.08824 -4.0098,2.16667 -6.12745,3.2549 -2.12745,1.08824 -4.14706,2.16667 -6.32353,3.06863 -8.48039,3.87255 -17.2451,7.08824 -26.22549,9.60784 -8.90196,2.56863 -17.83334,4.64706 -26.72549,6.66667 -17.75491,3.93137 -35.25491,7.83333 -52.13726,13.7549 -8.47059,2.82353 -16.76471,6.15687 -24.82353,9.98039 -7.95098,3.79412 -15.36274,8.62746 -22.03922,14.39216 -13.36274,11.83334 -23.63725,26.7549 -29.92156,43.47059 -6.47059,16.86275 -9.39216,34.88235 -8.55883,52.94118 h -1.09804 z"
       id="path9"
       style="fill:#006909" />
    <path
       class="f"
       d="m 589.17649,273.94118 c 6.15686,-6.56863 11.83333,-13.57843 16.98039,-20.97059 5.07843,-7.21568 9.72549,-14.73529 14.59804,-22.29412 l 3.66667,-5.68627 3.69608,-5.60784 c 2.40196,-3.56863 4.61764,-7.25491 6.63725,-11.05883 1.96079,-3.72549 3.42157,-7.69608 4.36275,-11.80392 1.0098,-4.33333 1.16666,-8.81373 0.47058,-13.20588 2.9902,3.89215 4.76471,8.57843 5.08824,13.48039 0.41176,4.98039 -0.13725,10 -1.61765,14.77451 -1.42157,4.63726 -3.33333,9.09804 -5.69608,13.33333 -2.23529,4.12745 -4.58823,8 -7.05882,11.92157 -4.95098,7.96079 -10.77451,15.33334 -17.35294,22 -6.76471,6.5 -14.72549,12.27451 -23.77451,15.11765 z"
       id="path10"
       style="fill:#006909" />
    <path
       class="f"
       d="m 803.951,320.59804 c -14.83333,-3.39215 -30.16666,-3.91176 -45.19608,-1.52941 -4.93137,0.72549 -9.80392,1.78432 -14.59804,3.15687 -4.7549,1.37254 -9.38235,3.12745 -13.85294,5.2549 l -13.33333,6.12745 c -4.66667,2.10784 -9.34314,4.01961 -13.96079,6 -4.61764,1.98039 -9.27451,4.06863 -14.23529,6.09804 l -0.72549,-0.86275 c 5.85294,-9.16666 14.83333,-15.88235 23.60784,-21.28431 4.61765,-2.83333 9.57844,-5.04902 14.77451,-6.58824 5.17647,-1.46078 10.43138,-2.65686 15.72549,-3.55882 5.2451,-0.94118 10.53922,-1.53922 15.86275,-1.80392 5.29412,-0.21569 10.59804,-0.0686 15.87255,0.44117 10.44118,1.01961 20.68627,3.55883 30.40196,7.52942 l -0.35294,1.0196 z"
       id="path11"
       style="fill:#006909" />
    <path
       class="f"
       d="m 695.76473,337.11765 c 10.68627,-5.12745 22.44117,-7.62745 34.28431,-7.31372 1.48039,0 2.97059,0 4.44118,0.12745 1.47059,0.12745 2.93137,0.30392 4.39215,0.5 1.46079,0.19608 2.92157,0.44117 4.38236,0.68627 l 4.29412,1.05883 4.2647,1.13725 4.18628,1.36275 4.16666,1.36274 4.09804,1.5 4.10785,1.5 4.0098,1.62745 4.0098,1.62745 3.92157,1.82353 3.91177,1.85294 3.81372,2 c 2.55883,1.30393 5.07843,2.68628 7.56863,4.09804 9.92157,5.70589 19.46079,11.77451 29.0098,18.02942 l -0.54901,1.0098 c -10.36275,-4.67647 -20.52942,-9.7549 -30.96079,-13.93137 -2.57843,-1.10785 -5.17647,-2.17647 -7.80392,-3.25491 l -3.91177,-1.5098 -3.96078,-1.38235 -3.92157,-1.39216 -3.97059,-1.2549 -3.97059,-1.2353 -4.0098,-1.05882 -4.0098,-1.01961 -4.05883,-0.7647 -4.03921,-0.7353 -4.06863,-0.49019 -4.03922,-0.58824 -4.03921,-0.45098 c -1.34314,-0.15686 -2.67647,-0.35294 -4.01961,-0.56863 -1.34314,-0.21568 -2.67647,-0.29411 -4.01961,-0.47058 -2.69608,-0.34314 -5.38235,-0.78432 -8.10784,-0.94118 -2.72549,-0.16667 -5.45098,-0.68628 -8.20588,-0.7451 -1.38236,-0.0784 -2.75491,-0.16667 -4.16667,-0.29412 -1.41177,-0.12745 -2.80392,-0.31372 -4.19608,-0.31372 -2.82353,-0.12745 -5.65686,-0.2451 -8.60784,-0.63726 l -0.22549,-0.94117 z"
       id="path12"
       style="fill:#006909" />
    <path
       class="d"
       d="m 920.48042,535.94119 c 0.81372,-6.88236 -5.64706,-12.51961 -12.12745,-14.82353 -10.76471,-3.80392 -22.60785,-2.14706 -33.96079,-0.14706 -73.73529,13.0098 -145.95098,35.13725 -221.4902,16.2549 -17.17647,-4.19608 -32.9902,-12.77451 -45.89216,-24.89216 -3.73529,-3.21568 -6.60784,-7.30392 -8.38235,-11.90196 -1.14706,-4.23529 -1.42157,-8.65686 -0.81373,-13.0098 2.64706,-32.37255 18.47059,-88.4804 -24.32353,-101.57844 -1.71568,-0.69607 -3.62745,-0.77451 -5.40196,-0.21568 -3.24509,1.33333 -3.74509,5.85294 -2.41176,9.13725 1.33333,3.28432 3.56863,6.12745 4.44117,9.52941 1.29412,5.15687 -1.0098,10.45099 -3.24509,15.28432 -5.9902,11.88235 -13.2353,23.08823 -21.61765,33.41176 -20.02941,26.26471 -28.33333,59.65687 -22.93137,92.26471 0.14706,0.94118 0.27451,1.87255 0.39215,2.76471 3.02941,23.34314 -28.33333,93.19608 47.25491,178.96079 7.96078,9.0098 23.37255,23.66666 41.08823,40.27451 v -93.67648 c -1.34313,-6.84313 2.70588,-13.59803 9.35294,-15.62745 82.88236,-42.27451 166.78432,-85.64706 257.84315,-107 8.69608,-1.97059 40.86274,-3.28431 42.21568,-15.0098 z"
       id="path2"
       style="fill:#006909" />
    <path
       class="d"
       d="m 264.39217,536.10785 c 18.59804,4.40196 38.40196,3.25491 57.71569,1.92157 23.18627,-1.5 47.02941,-3.2549 67.62745,-12.19608 -5.40196,-6.35294 -17.35294,-10.45098 -21.26471,-17.16666 -3.33333,-5.78432 -6.11765,-11.88236 -8.30392,-18.19608 -2.97059,-8.54902 -4.78431,-17.4804 -9.72549,-25.41177 -5.33333,-8.89215 -14.59804,-14.67647 -24.91177,-15.53921 3.59804,21.88235 9.9902,44.95098 10.70589,67.07843 -10.19608,-5.05882 -19.02942,-12.5 -25.76471,-21.68628 -12.66667,-18.42157 -27.89216,-36.5 -54.68628,-41.66666 -0.7549,-0.22549 -1.54902,-0.22549 -2.30392,0 -1.41176,0.56862 -1.18627,2.24509 -0.7451,3.48039 5.04902,12.77451 11.9804,24.71569 20.55883,35.43137 3.7451,4.87255 7.63725,9.65686 11.07843,14.63726 2.62745,3.67647 7.21569,16.42157 11.07843,18.27451 -21.59804,-11.06863 -46.53921,-21.88236 -63.66667,-37.50981 -2.5196,-2.63725 -5.30392,-5.0098 -8.30392,-7.08823 -6.31372,-3.36275 -13.40196,-5.00981 -20.54902,-4.76471 -3.92157,0 -17.46078,-0.2451 -19.98039,2.7451 -0.55882,0.79412 -0.47059,1.87255 0.19608,2.56863 0.61764,0.81372 49.63725,47.70588 81.2451,55.09804 z"
       id="path3"
       style="fill:#006909" />
    <path
       class="d"
       d="m 760.84316,524.92158 c 31.78431,-7.46079 48.87255,-33.11765 73.20588,-49.86275 1.93138,-1.31372 3.87255,-2.49019 5.90196,-3.77451 0.92157,-0.45098 1.75491,-1.07843 2.45099,-1.84313 0.63725,-0.67648 0.72549,-1.71569 0.19607,-2.4902 -2.59804,-3.05882 -16.11764,-2.84314 -20.03921,-2.81373 -7.17647,-0.2647 -14.30392,1.37255 -20.64706,4.7451 -3.04902,2.09804 -5.89216,4.5 -8.48039,7.15686 -17.17648,15.78432 -42.16667,26.57844 -63.91177,37.7353 3.87255,-2 8.5098,-14.63726 11.13725,-18.39216 3.54902,-4.98039 7.4804,-9.7549 11.2255,-14.7451 8.63725,-10.7549 15.60784,-22.7647 20.67647,-35.60784 0.44117,-1.2549 0.64706,-2.91176 -0.76471,-3.5 -0.7549,-0.21569 -1.54902,-0.21569 -2.30392,0 -26.92157,5.21569 -42.16667,23.41177 -54.94118,41.93137 -6.79412,9.2353 -15.69608,16.72549 -25.95098,21.83334 0.69608,-22.27451 7.13725,-45.37255 10.7549,-67.4902 -10.96078,0.58823 -20.0098,7.63725 -24.99019,15.63725 -4.9804,8 -6.77451,16.92157 -9.72549,25.53922 -2.2255,6.35294 -5.03922,12.48039 -8.40197,18.30392 -3.92156,6.7451 -15.92156,10.86275 -21.35294,17.26471 20.57843,9.03922 44.62745,10.72549 67.91177,12.2451 19.4902,1.2647 39.39216,2.51961 58.05882,-1.90196 z"
       id="path4"
       style="fill:#006909" />
    <path
       class="d"
       d="M 690.72551,878.66669 C 683.86277,858.01963 578.83335,768.74511 552.88237,739.26472 c -75.58824,-85.7451 -44.22549,-155.63726 -47.2549,-178.94118 -5.83334,-46.05882 -24.97059,-87.10784 -44.4804,-128.53922 -2.2549,-4.87255 -4.58823,-10.12745 -3.24509,-15.28431 0.87255,-3.40196 3.24509,-6.22549 4.44117,-9.52941 1.19608,-3.30393 0.67647,-7.80393 -2.54902,-9.15687 -1.78431,-0.54902 -3.70588,-0.47059 -5.43137,0.22549 -42.68628,13.10785 -26.85294,69.21569 -24.32353,101.57844 0.58824,4.34313 0.31373,8.7647 -0.79412,13.0098 -1.78431,4.57843 -4.65686,8.63726 -8.37255,11.85294 -15.2647,14.63726 -35.52941,23.00981 -56.20588,27.19608 -71.82353,14.63726 -140.85294,-6.09804 -211.25491,-18.51961 -11.2549,-2 -23.10784,-3.65686 -33.96078,0.14706 -6.4902,2.42157 -12.97059,7.95098 -12.12745,14.83334 1.38235,11.72549 33.54902,13.0098 42.36274,15.10784 91.05883,21.20588 165.2451,64.62745 248.12746,106.90196 2.91176,1.17647 5.47059,3.09804 7.41176,5.57843 22.93138,36.96079 26.4902,82.79412 9.54902,122.86275 -16.78431,40.80392 -86.45098,76.85294 -80.61764,81.76471 0.96078,0.78431 60.45098,-16.2549 129.73529,-22.87255 1.2353,-3.53922 2.31373,-7.12745 3.2451,-10.7451 6.07843,-22.04902 8.10784,-45.31372 7.53922,-68.62745 -0.2451,-11.68628 -1.05883,-23.43137 -2.46079,-35.14706 -1.41176,-11.72549 -3.2451,-23.46079 -5.57843,-35.2353 5.21569,10.90197 9.40196,22.27451 12.5,33.96079 3.14706,11.73529 5.41177,23.69608 6.77451,35.76471 2.62745,24.17647 1.61765,49.19608 -4.98039,73.16666 -0.53922,1.90197 -1.11765,3.80393 -1.71569,5.70589 13.05883,-0.91177 26.32353,-1.38236 39.4902,-1.2353 89.38235,0.89216 174.2451,30.14706 172.00981,23.57844 z"
       id="path5"
       style="fill:#006909" />
    <path
       class="f"
       d="m 175.64707,391.4706 c 7.83333,-3.42157 15.41176,-7.37255 22.70588,-11.83334 7.4902,-4.43137 15.2451,-8.37255 23.23529,-11.80392 16.17648,-6.79412 33.2255,-11.26471 50.64707,-13.28431 17.22549,-1.90197 34.58823,-2.41177 51.89215,-1.5 17.20589,0.73529 34.26471,2.0196 51.45098,3.7549 -17.10784,2.39215 -34.34313,3.2549 -51.44117,3.97059 -17.08824,0.71568 -34.05883,1.45098 -50.79412,3.45098 -16.65686,1.91176 -33.08824,5.46078 -49.05883,10.59804 -8.10784,2.56862 -15.92157,5.55882 -23.87255,8.86274 -7.95098,3.30392 -16.23529,6.45098 -24.77451,7.78432 z"
       id="path13"
       style="fill:#006909" />
    <path
       class="f"
       d="m 206.87256,306.81373 c 6.49019,3.38235 12.45098,7.2549 18.42157,11.01961 5.97059,3.77451 11.82353,7.57843 17.69608,11.16667 5.87255,3.58823 11.69607,7.10784 17.60784,10.39215 5.86275,3.37255 12.09804,6.06863 18.56863,8.02941 6.58823,1.90197 13.33333,3.18628 20.15686,3.83334 6.91177,0.83333 13.9902,1.33333 21.07843,1.93137 14.12745,1.31373 28.26471,2.47059 42.40196,3.92157 v 1.13725 c -14.20588,0.35295 -28.39215,0.40196 -42.58823,0.63726 -7.08824,0 -14.17647,0.14706 -21.40196,0 -7.34314,-0.18628 -14.64706,-1.04902 -21.82353,-2.56863 -7.27451,-1.56863 -14.39216,-3.82353 -21.2451,-6.73529 -6.79412,-2.92157 -13.21569,-6.64706 -19.11765,-11.10785 -5.80392,-4.36274 -11.27451,-9.15686 -16.36274,-14.34313 -5.09804,-5.11765 -9.81373,-10.59804 -14.12746,-16.40196 l 0.72549,-0.92157 z"
       id="path14"
       style="fill:#006909" />
    <path
       class="e"
       d="m 306.2157,264.90196 c 0,2.87255 -0.54902,5.62746 -1.64706,8.27451 -1.09804,2.64706 -2.65686,4.9902 -4.67647,7.01961 -2.01961,2.02941 -4.36275,3.58824 -7,4.68628 -2.64706,1.09804 -5.39216,1.64706 -8.2549,1.64706 -2.86275,0 -5.61765,-0.54902 -8.26471,-1.64706 -2.64706,-1.09804 -4.98039,-2.65687 -7,-4.68628 -2.01961,-2.02941 -3.57843,-4.37255 -4.67647,-7.01961 -1.09804,-2.64705 -1.64706,-5.41176 -1.64706,-8.28431 0,-2.87255 0.54902,-5.62745 1.64706,-8.28431 1.09804,-2.64706 2.65686,-4.9902 4.67647,-7.01961 2.01961,-2.02941 4.36275,-3.58824 7,-4.69608 2.64706,-1.09804 5.40196,-1.64706 8.26471,-1.64706 2.86274,0 5.61764,0.54902 8.2549,1.64706 2.64706,1.09804 4.98039,2.66667 7,4.69608 2.01961,2.02941 3.57843,4.37255 4.67647,7.01961 1.09804,2.64706 1.64706,5.41176 1.64706,8.28431 z"
       id="path15"
       style="fill:#006909" />
    <path
       class="e"
       d="m 553.04904,197.16667 c 0,3.52941 -0.67647,6.92157 -2.01961,10.17647 -1.34314,3.2549 -3.26471,6.13725 -5.7549,8.62745 -2.4902,2.4902 -5.35294,4.41177 -8.60785,5.76471 -3.2549,1.35294 -6.63725,2.0196 -10.15686,2.0196 -3.51961,0 -6.90196,-0.67647 -10.15686,-2.0196 -3.2451,-1.35294 -6.11765,-3.27451 -8.60785,-5.76471 -2.49019,-2.4902 -4.40196,-5.37255 -5.7549,-8.62745 -1.34313,-3.26471 -2.01961,-6.65686 -2.01961,-10.17647 0,-3.51961 0.67648,-6.92157 2.01961,-10.17647 1.34314,-3.2549 3.26471,-6.13726 5.7549,-8.62745 2.4902,-2.4902 5.35295,-4.41177 8.60785,-5.76471 3.2549,-1.35294 6.63725,-2.01961 10.15686,-2.01961 3.51961,0 6.90196,0.67647 10.15686,2.01961 3.2451,1.35294 6.11765,3.27451 8.60785,5.76471 2.49019,2.49019 4.40196,5.37255 5.7549,8.62745 1.34314,3.2647 2.01961,6.65686 2.01961,10.17647 z"
       id="path16"
       style="fill:#006909" />
    <path
       class="e"
       d="m 379.18629,95.147059 c 0,2.892157 -0.54902,5.666671 -1.65686,8.333331 -1.09804,2.66667 -2.67648,5.01961 -4.71569,7.06863 -2.03922,2.03922 -4.38235,3.61765 -7.04902,4.72549 -2.66667,1.10784 -5.43137,1.65686 -8.31373,1.65686 -2.88235,0 -5.65686,-0.54902 -8.31372,-1.65686 -2.66667,-1.10784 -5.00981,-2.67647 -7.04902,-4.72549 -2.03922,-2.03922 -3.60785,-4.40196 -4.71569,-7.06863 -1.09804,-2.66666 -1.65686,-5.450978 -1.65686,-8.333331 0,-2.882353 0.54902,-5.666667 1.65686,-8.333334 1.09804,-2.666667 2.67647,-5.029412 4.71569,-7.068625 2.03921,-2.039216 4.38235,-3.617648 7.04902,-4.725491 2.66666,-1.107843 5.43137,-1.656863 8.31372,-1.656863 2.88236,0 5.65687,0.54902 8.31373,1.656863 2.66667,1.107843 5.0098,2.676471 7.04902,4.725491 2.03921,2.039213 3.60784,4.401958 4.71569,7.068625 1.09803,2.666667 1.65686,5.450981 1.65686,8.333334 z"
       id="path17"
       style="fill:#006909" />
    <path
       class="e"
       d="m 642.02943,345.2353 c 0,2.87255 -0.54902,5.62745 -1.64706,8.27451 -1.09804,2.64706 -2.65686,4.9902 -4.67647,7.01961 -2.02941,2.02941 -4.36274,3.58823 -7,4.68627 -2.64706,1.09804 -5.39216,1.64706 -8.2549,1.64706 -2.86275,0 -5.61765,-0.54902 -8.26471,-1.64706 -2.64706,-1.09804 -4.98039,-2.65686 -7,-4.68627 -2.0196,-2.02941 -3.57843,-4.37255 -4.67647,-7.01961 -1.09804,-2.64706 -1.64706,-5.41176 -1.64706,-8.27451 0,-2.86275 0.54902,-5.62745 1.64706,-8.28431 1.09804,-2.64706 2.65687,-4.9902 4.67647,-7.01961 2.01961,-2.02941 4.36275,-3.58824 7,-4.68628 2.64706,-1.09804 5.40196,-1.64706 8.26471,-1.64706 2.86274,0 5.61765,0.54902 8.2549,1.64706 2.64706,1.09804 4.98039,2.65687 7,4.68628 2.01961,2.02941 3.57843,4.37255 4.67647,7.01961 1.09804,2.64705 1.64706,5.41176 1.64706,8.28431 z"
       id="path18"
       style="fill:#006909" />
    <path
       class="e"
       d="m 723.12747,125.12745 c 0,2.89216 -0.54902,5.66667 -1.65686,8.33334 -1.09804,2.66666 -2.67647,5.02941 -4.71569,7.06862 -2.03921,2.03922 -4.38235,3.61765 -7.04902,4.72549 -2.66666,1.10785 -5.43137,1.65687 -8.31372,1.65687 -2.88236,0 -5.65687,-0.54902 -8.31373,-1.65687 -2.66666,-1.10784 -5.0098,-2.67647 -7.04902,-4.72549 -2.03921,-2.03921 -3.60784,-4.39215 -4.71568,-7.06862 -1.09804,-2.66667 -1.65687,-5.45099 -1.65687,-8.33334 0,-2.88235 0.54902,-5.66667 1.65687,-8.33333 1.09804,-2.66667 2.67647,-5.02941 4.71568,-7.06863 2.03922,-2.03922 4.38236,-3.61765 7.04902,-4.72549 2.66667,-1.10784 5.43137,-1.65686 8.31373,-1.65686 2.88235,0 5.65686,0.54902 8.31372,1.65686 2.66667,1.10784 5.00981,2.67647 7.04902,4.72549 2.03922,2.03922 3.60785,4.39216 4.71569,7.06863 1.09804,2.66666 1.65686,5.45098 1.65686,8.33333 z"
       id="path19"
       style="fill:#006909" />
  </g>
  <metadata
     id="metadata1">
    <rdf:RDF>
      <cc:Work
         rdf:about="">
        <dc:title>Sustentarea Symbol</dc:title>
        <dc:rights>
          <cc:Agent>
            <dc:title>All Rights Reserved</dc:title>
          </cc:Agent>
        </dc:rights>
        <dc:creator>
          <cc:Agent>
            <dc:title>Sustentarea</dc:title>
          </cc:Agent>
        </dc:creator>
      </cc:Work>
    </rdf:RDF>
  </metadata>
</svg>
